<?xml version="1.0" encoding="UTF-8"?>
<!--Generator: Apple Native CoreSVG 149-->
<!DOCTYPE svg
PUBLIC "-//W3C//DTD SVG 1.1//EN"
       "http://www.w3.org/Graphics/SVG/1.1/DTD/svg11.dtd">
<svg version="1.1" xmlns="http://www.w3.org/2000/svg" xmlns:xlink="http://www.w3.org/1999/xlink" width="3300" height="2200">
 <!--glyph: "uni1007F6.medium", point size: 100.000000, font version: "Version 16.0d18e1", template writer version: "8"-->
 <g id="Notes">
  <rect height="2200" id="artboard" style="fill:white;opacity:1" width="3300" x="0" y="0"/>
  <line id="" style="fill:none;stroke:black;opacity:1;stroke-width:0.5;" x1="263" x2="3036" y1="292" y2="292"/>
  <text style="stroke:none;fill:black;font-family:-apple-system,&quot;SF Pro Display&quot;,&quot;SF Pro Text&quot;,Helvetica,sans-serif;font-weight:bold;" transform="matrix(1 0 0 1 263 322)">Weight/Scale Variations</text>
  <text style="stroke:none;fill:black;font-family:-apple-system,&quot;SF Pro Display&quot;,&quot;SF Pro Text&quot;,Helvetica,sans-serif;text-anchor:middle;" transform="matrix(1 0 0 1 559.711 322)">Ultralight</text>
  <text style="stroke:none;fill:black;font-family:-apple-system,&quot;SF Pro Display&quot;,&quot;SF Pro Text&quot;,Helvetica,sans-serif;text-anchor:middle;" transform="matrix(1 0 0 1 856.422 322)">Thin</text>
  <text style="stroke:none;fill:black;font-family:-apple-system,&quot;SF Pro Display&quot;,&quot;SF Pro Text&quot;,Helvetica,sans-serif;text-anchor:middle;" transform="matrix(1 0 0 1 1153.13 322)">Light</text>
  <text style="stroke:none;fill:black;font-family:-apple-system,&quot;SF Pro Display&quot;,&quot;SF Pro Text&quot;,Helvetica,sans-serif;text-anchor:middle;" transform="matrix(1 0 0 1 1449.84 322)">Regular</text>
  <text style="stroke:none;fill:black;font-family:-apple-system,&quot;SF Pro Display&quot;,&quot;SF Pro Text&quot;,Helvetica,sans-serif;text-anchor:middle;" transform="matrix(1 0 0 1 1746.56 322)">Medium</text>
  <text style="stroke:none;fill:black;font-family:-apple-system,&quot;SF Pro Display&quot;,&quot;SF Pro Text&quot;,Helvetica,sans-serif;text-anchor:middle;" transform="matrix(1 0 0 1 2043.27 322)">Semibold</text>
  <text style="stroke:none;fill:black;font-family:-apple-system,&quot;SF Pro Display&quot;,&quot;SF Pro Text&quot;,Helvetica,sans-serif;text-anchor:middle;" transform="matrix(1 0 0 1 2339.98 322)">Bold</text>
  <text style="stroke:none;fill:black;font-family:-apple-system,&quot;SF Pro Display&quot;,&quot;SF Pro Text&quot;,Helvetica,sans-serif;text-anchor:middle;" transform="matrix(1 0 0 1 2636.69 322)">Heavy</text>
  <text style="stroke:none;fill:black;font-family:-apple-system,&quot;SF Pro Display&quot;,&quot;SF Pro Text&quot;,Helvetica,sans-serif;text-anchor:middle;" transform="matrix(1 0 0 1 2933.4 322)">Black</text>
  <line id="" style="fill:none;stroke:black;opacity:1;stroke-width:0.5;" x1="263" x2="3036" y1="1903" y2="1903"/>
  <g id="" transform="matrix(1 0 0 1 263 1933)">
   <path d="M9.24805 0.830078C13.5547 0.830078 17.1387-2.74414 17.1387-7.05078C17.1387-11.3574 13.5449-14.9316 9.23828-14.9316C4.94141-14.9316 1.36719-11.3574 1.36719-7.05078C1.36719-2.74414 4.95117 0.830078 9.24805 0.830078ZM9.24805-0.654297C5.70312-0.654297 2.87109-3.49609 2.87109-7.05078C2.87109-10.6055 5.69336-13.4473 9.23828-13.4473C12.793-13.4473 15.6348-10.6055 15.6445-7.05078C15.6543-3.49609 12.8027-0.654297 9.24805-0.654297ZM6.39648-6.31836L8.50586-6.31836L8.50586-4.19922C8.50586-3.75977 8.79883-3.45703 9.22852-3.45703C9.67773-3.45703 9.9707-3.75977 9.9707-4.19922L9.9707-6.31836L12.0996-6.31836C12.5391-6.31836 12.8418-6.61133 12.8418-7.04102C12.8418-7.48047 12.5391-7.7832 12.0996-7.7832L9.9707-7.7832L9.9707-9.89258C9.9707-10.3418 9.67773-10.6445 9.22852-10.6445C8.79883-10.6445 8.50586-10.3418 8.50586-9.89258L8.50586-7.7832L6.39648-7.7832C5.94727-7.7832 5.64453-7.48047 5.64453-7.04102C5.64453-6.61133 5.94727-6.31836 6.39648-6.31836Z"/>
  </g>
  <g id="" transform="matrix(1 0 0 1 281.506 1933)">
   <path d="M11.709 2.91016C17.1582 2.91016 21.6699-1.61133 21.6699-7.05078C21.6699-12.5 17.1484-17.0117 11.6992-17.0117C6.25977-17.0117 1.74805-12.5 1.74805-7.05078C1.74805-1.61133 6.26953 2.91016 11.709 2.91016ZM11.709 1.25C7.09961 1.25 3.41797-2.44141 3.41797-7.05078C3.41797-11.6602 7.08984-15.3516 11.6992-15.3516C16.3086-15.3516 20-11.6602 20.0098-7.05078C20.0195-2.44141 16.3184 1.25 11.709 1.25ZM7.98828-6.23047L10.8789-6.23047L10.8789-3.32031C10.8789-2.83203 11.2109-2.5 11.6895-2.5C12.1777-2.5 12.5195-2.83203 12.5195-3.32031L12.5195-6.23047L15.4297-6.23047C15.918-6.23047 16.25-6.5625 16.25-7.04102C16.25-7.5293 15.918-7.87109 15.4297-7.87109L12.5195-7.87109L12.5195-10.7617C12.5195-11.2695 12.1777-11.6016 11.6895-11.6016C11.2109-11.6016 10.8789-11.2598 10.8789-10.7617L10.8789-7.87109L7.98828-7.87109C7.48047-7.87109 7.14844-7.5293 7.14844-7.04102C7.14844-6.5625 7.49023-6.23047 7.98828-6.23047Z"/>
  </g>
  <g id="" transform="matrix(1 0 0 1 304.924 1933)">
   <path d="M14.9707 5.66406C21.9336 5.66406 27.6953-0.0976562 27.6953-7.05078C27.6953-14.0137 21.9238-19.7754 14.9609-19.7754C8.00781-19.7754 2.25586-14.0137 2.25586-7.05078C2.25586-0.0976562 8.01758 5.66406 14.9707 5.66406ZM14.9707 3.84766C8.93555 3.84766 4.08203-1.01562 4.08203-7.05078C4.08203-13.0957 8.92578-17.9492 14.9609-17.9492C21.0059-17.9492 25.8594-13.0957 25.8691-7.05078C25.8789-1.01562 21.0156 3.84766 14.9707 3.84766ZM10.0586-6.14258L14.0625-6.14258L14.0625-2.12891C14.0625-1.5918 14.4336-1.2207 14.9512-1.2207C15.4883-1.2207 15.8594-1.5918 15.8594-2.12891L15.8594-6.14258L19.8828-6.14258C20.4102-6.14258 20.791-6.51367 20.791-7.03125C20.791-7.56836 20.4199-7.94922 19.8828-7.94922L15.8594-7.94922L15.8594-11.9531C15.8594-12.5098 15.4883-12.8809 14.9512-12.8809C14.4336-12.8809 14.0625-12.5 14.0625-11.9531L14.0625-7.94922L10.0586-7.94922C9.50195-7.94922 9.13086-7.56836 9.13086-7.03125C9.13086-6.51367 9.51172-6.14258 10.0586-6.14258Z"/>
  </g>
  <text style="stroke:none;fill:black;font-family:-apple-system,&quot;SF Pro Display&quot;,&quot;SF Pro Text&quot;,Helvetica,sans-serif;font-weight:bold;" transform="matrix(1 0 0 1 263 1953)">Design Variations</text>
  <text style="stroke:none;fill:black;font-family:-apple-system,&quot;SF Pro Display&quot;,&quot;SF Pro Text&quot;,Helvetica,sans-serif;" transform="matrix(1 0 0 1 263 1971)">Symbols are supported in up to nine weights and three scales.</text>
  <text style="stroke:none;fill:black;font-family:-apple-system,&quot;SF Pro Display&quot;,&quot;SF Pro Text&quot;,Helvetica,sans-serif;" transform="matrix(1 0 0 1 263 1989)">For optimal layout with text and other symbols, vertically align</text>
  <text style="stroke:none;fill:black;font-family:-apple-system,&quot;SF Pro Display&quot;,&quot;SF Pro Text&quot;,Helvetica,sans-serif;" transform="matrix(1 0 0 1 263 2007)">symbols with the adjacent text.</text>
  <line id="" style="fill:none;stroke:#00AEEF;stroke-width:0.5;opacity:1.0;" x1="776" x2="776" y1="1919" y2="1933"/>
  <g id="" transform="matrix(1 0 0 1 776 1933)">
   <path d="M3.31055 0.126953C3.82812 0.126953 4.08203-0.0683594 4.26758-0.605469L5.52734-4.0625L11.2891-4.0625L12.5488-0.605469C12.7344-0.0683594 12.9883 0.126953 13.4961 0.126953C14.0137 0.126953 14.3457-0.185547 14.3457-0.673828C14.3457-0.839844 14.3164-0.986328 14.2383-1.20117L9.6582-13.3887C9.43359-13.9941 9.0332-14.2871 8.4082-14.2871C7.80273-14.2871 7.39258-13.9941 7.17773-13.3984L2.59766-1.19141C2.51953-0.976562 2.49023-0.830078 2.49023-0.664062C2.49023-0.175781 2.80273 0.126953 3.31055 0.126953ZM6.00586-5.53711L8.37891-12.1094L8.42773-12.1094L10.8008-5.53711Z"/>
  </g>
  <line id="" style="fill:none;stroke:#00AEEF;stroke-width:0.5;opacity:1.0;" x1="792.836" x2="792.836" y1="1919" y2="1933"/>
  <text style="stroke:none;fill:black;font-family:-apple-system,&quot;SF Pro Display&quot;,&quot;SF Pro Text&quot;,Helvetica,sans-serif;font-weight:bold;" transform="matrix(1 0 0 1 776 1953)">Margins</text>
  <text style="stroke:none;fill:black;font-family:-apple-system,&quot;SF Pro Display&quot;,&quot;SF Pro Text&quot;,Helvetica,sans-serif;" transform="matrix(1 0 0 1 776 1971)">Leading and trailing margins on the left and right side of each symbol</text>
  <text style="stroke:none;fill:black;font-family:-apple-system,&quot;SF Pro Display&quot;,&quot;SF Pro Text&quot;,Helvetica,sans-serif;" transform="matrix(1 0 0 1 776 1989)">can be adjusted by modifying the x-location of the margin guidelines.</text>
  <text style="stroke:none;fill:black;font-family:-apple-system,&quot;SF Pro Display&quot;,&quot;SF Pro Text&quot;,Helvetica,sans-serif;" transform="matrix(1 0 0 1 776 2007)">Modifications are automatically applied proportionally to all</text>
  <text style="stroke:none;fill:black;font-family:-apple-system,&quot;SF Pro Display&quot;,&quot;SF Pro Text&quot;,Helvetica,sans-serif;" transform="matrix(1 0 0 1 776 2025)">scales and weights.</text>
  <g id="" transform="matrix(1 0 0 1 1289 1933)">
   <path d="M2.8418 1.86523L4.54102 3.57422C5.40039 4.44336 6.38672 4.38477 7.31445 3.35938L17.4902-7.85156C17.7539-7.76367 18.0273-7.7832 18.3398-7.8418L19.4043-8.03711L20.0684-7.36328L20.0293-6.80664C19.9902-6.30859 20.1172-5.92773 20.6055-5.44922L21.3672-4.70703C21.8457-4.22852 22.4609-4.19922 22.9297-4.66797L25.8398-7.58789C26.3086-8.05664 26.2891-8.65234 25.8105-9.13086L25.0391-9.89258C24.5605-10.3711 24.1895-10.5273 23.7109-10.4883L23.1348-10.4395L22.4902-11.0742L22.7344-12.1973C22.8613-12.7637 22.7051-13.2031 22.1191-13.7891L19.9219-15.9766C16.582-19.2969 12.1484-19.2188 9.25781-16.3281C8.83789-15.918 8.80859-15.3418 9.04297-14.9512C9.27734-14.5898 9.73633-14.3555 10.3809-14.5215C11.8457-14.8633 13.3691-14.9219 14.7949-13.9844L14.209-12.5293C14.0137-12.0508 13.9844-11.6504 14.1113-11.2891L3.04688-0.898438C2.06055 0.0195312 1.98242 0.996094 2.8418 1.86523ZM10.752-15.957C13.1836-17.7344 16.4746-17.4316 18.7012-15.2051L21.1328-12.793C21.3672-12.5586 21.4062-12.373 21.3379-12.0312L21.0156-10.5469L22.5195-9.0625L23.5059-9.12109C23.7598-9.13086 23.8379-9.11133 24.0332-8.91602L24.6094-8.33984L22.168-5.89844L21.5918-6.47461C21.3965-6.66992 21.3672-6.74805 21.377-7.01172L21.4453-7.98828L19.9512-9.47266L18.4277-9.21875C18.1055-9.15039 17.959-9.17969 17.7148-9.41406L15.7129-11.416C15.459-11.6504 15.4297-11.8164 15.5859-12.1875L16.4648-14.2773C14.9023-15.7324 12.8711-16.3574 10.8398-15.7617C10.6836-15.7227 10.625-15.8496 10.752-15.957ZM5.27344 2.30469L4.10156 1.14258C3.63281 0.683594 3.74023 0.341797 4.14062-0.0195312L14.9512-10.1953L16.416-8.71094L6.42578 2.27539C6.07422 2.67578 5.74219 2.77344 5.27344 2.30469Z"/>
  </g>
  <text style="stroke:none;fill:black;font-family:-apple-system,&quot;SF Pro Display&quot;,&quot;SF Pro Text&quot;,Helvetica,sans-serif;font-weight:bold;" transform="matrix(1 0 0 1 1289 1953)">Exporting</text>
  <text style="stroke:none;fill:black;font-family:-apple-system,&quot;SF Pro Display&quot;,&quot;SF Pro Text&quot;,Helvetica,sans-serif;" transform="matrix(1 0 0 1 1289 1971)">Symbols should be outlined when exporting to ensure the</text>
  <text style="stroke:none;fill:black;font-family:-apple-system,&quot;SF Pro Display&quot;,&quot;SF Pro Text&quot;,Helvetica,sans-serif;" transform="matrix(1 0 0 1 1289 1989)">design is preserved when submitting to Xcode.</text>
  <text id="template-version" style="stroke:none;fill:black;font-family:-apple-system,&quot;SF Pro Display&quot;,&quot;SF Pro Text&quot;,Helvetica,sans-serif;text-anchor:end;" transform="matrix(1 0 0 1 3036 1933)">Template v.2.0</text>
  <text style="stroke:none;fill:black;font-family:-apple-system,&quot;SF Pro Display&quot;,&quot;SF Pro Text&quot;,Helvetica,sans-serif;text-anchor:end;" transform="matrix(1 0 0 1 3036 1951)">Requires Xcode 12 or greater</text>
  <text style="stroke:none;fill:black;font-family:-apple-system,&quot;SF Pro Display&quot;,&quot;SF Pro Text&quot;,Helvetica,sans-serif;text-anchor:end;" transform="matrix(1 0 0 1 3036 1969)">Generated from hifispeaker.2.fill</text>
  <text style="stroke:none;fill:black;font-family:-apple-system,&quot;SF Pro Display&quot;,&quot;SF Pro Text&quot;,Helvetica,sans-serif;text-anchor:end;" transform="matrix(1 0 0 1 3036 1987)">Typeset at 100 points</text>
  <text style="stroke:none;fill:black;font-family:-apple-system,&quot;SF Pro Display&quot;,&quot;SF Pro Text&quot;,Helvetica,sans-serif;" transform="matrix(1 0 0 1 263 726)">Small</text>
  <text style="stroke:none;fill:black;font-family:-apple-system,&quot;SF Pro Display&quot;,&quot;SF Pro Text&quot;,Helvetica,sans-serif;" transform="matrix(1 0 0 1 263 1156)">Medium</text>
  <text style="stroke:none;fill:black;font-family:-apple-system,&quot;SF Pro Display&quot;,&quot;SF Pro Text&quot;,Helvetica,sans-serif;" transform="matrix(1 0 0 1 263 1586)">Large</text>
 </g>
 <g id="Guides">
  <g id="H-reference" style="fill:#27AAE1;stroke:none;" transform="matrix(1 0 0 1 339 696)">
   <path d="M0.976562 0L3.66211 0L12.9883-24.4629L45.752-24.4629L55.127 0L57.7637 0L30.6152-70.459L28.125-70.459ZM29.3457-67.1387L29.4434-67.1387L44.873-26.709L13.8672-26.709Z"/>
  </g>
  <line id="Baseline-S" style="fill:none;stroke:#27AAE1;opacity:1;stroke-width:0.5;" x1="263" x2="3036" y1="696" y2="696"/>
  <line id="Capline-S" style="fill:none;stroke:#27AAE1;opacity:1;stroke-width:0.5;" x1="263" x2="3036" y1="625.541" y2="625.541"/>
  <g id="H-reference" style="fill:#27AAE1;stroke:none;" transform="matrix(1 0 0 1 339 1126)">
   <path d="M0.976562 0L3.66211 0L12.9883-24.4629L45.752-24.4629L55.127 0L57.7637 0L30.6152-70.459L28.125-70.459ZM29.3457-67.1387L29.4434-67.1387L44.873-26.709L13.8672-26.709Z"/>
  </g>
  <line id="Baseline-M" style="fill:none;stroke:#27AAE1;opacity:1;stroke-width:0.5;" x1="263" x2="3036" y1="1126" y2="1126"/>
  <line id="Capline-M" style="fill:none;stroke:#27AAE1;opacity:1;stroke-width:0.5;" x1="263" x2="3036" y1="1055.54" y2="1055.54"/>
  <g id="H-reference" style="fill:#27AAE1;stroke:none;" transform="matrix(1 0 0 1 339 1556)">
   <path d="M0.976562 0L3.66211 0L12.9883-24.4629L45.752-24.4629L55.127 0L57.7637 0L30.6152-70.459L28.125-70.459ZM29.3457-67.1387L29.4434-67.1387L44.873-26.709L13.8672-26.709Z"/>
  </g>
  <line id="Baseline-L" style="fill:none;stroke:#27AAE1;opacity:1;stroke-width:0.5;" x1="263" x2="3036" y1="1556" y2="1556"/>
  <line id="Capline-L" style="fill:none;stroke:#27AAE1;opacity:1;stroke-width:0.5;" x1="263" x2="3036" y1="1485.54" y2="1485.54"/>
  <line id="left-margin" style="fill:none;stroke:#00AEEF;stroke-width:0.5;opacity:1.0;" x1="1378.8" x2="1378.8" y1="1030.79" y2="1150.12"/>
  <line id="right-margin" style="fill:none;stroke:#00AEEF;stroke-width:0.5;opacity:1.0;" x1="1520.89" x2="1520.89" y1="1030.79" y2="1150.12"/>
 </g>
 <g id="Symbols">
  <g id="Black-L" transform="matrix(1 0 0 1 2833.06 1556)">
   <path d="M36.084 1.36719L61.3281 1.36719L61.3281-17.6758C49.0234-16.748 38.3789-26.416 38.3789-38.9648C38.3789-51.416 49.1211-61.1816 61.3281-60.2051L61.3281-70.0195C54.1016-69.0918 47.1191-74.9512 47.1191-82.7637C47.1191-92.4805 57.8613-98.8281 66.5527-93.8477C72.3633-103.174 82.7148-108.545 96.0449-108.545L100.049-108.545L99.6582-109.082C96.2891-113.525 90.8691-115.82 83.5938-115.82L36.084-115.82C23.3398-115.82 16.0645-108.496 16.0645-95.752L16.0645-18.7012C16.0645-5.9082 23.3398 1.36719 36.084 1.36719ZM72.7539-73.7305L72.7539 21.2402C72.7539 36.1328 81.2012 44.6289 96.0449 44.6289L161.279 44.6289C176.172 44.6289 184.619 36.1328 184.619 21.2402L184.619-73.7305C184.619-88.6719 176.172-97.168 161.279-97.168L96.0449-97.168C81.2012-97.168 72.7539-88.6719 72.7539-73.7305ZM56.0547-82.8125C56.0547-79.7852 59.1797-77.9785 61.7188-79.4922C61.9629-81.4941 62.4023-83.4473 62.8906-85.3516C60.9375-88.0371 56.0547-86.6699 56.0547-82.8125ZM128.613-41.6016C119.434-41.6016 112.158-48.8281 112.158-58.1055C112.158-67.3828 119.434-74.707 128.613-74.6582C137.842-74.5605 145.117-67.3828 145.215-58.1055C145.312-48.8281 137.842-41.6016 128.613-41.6016ZM128.662-53.1738C131.396-53.1738 133.643-55.4199 133.643-58.1055C133.643-60.8887 131.348-63.0859 128.662-63.0859C125.977-63.0859 123.73-60.9863 123.73-58.1055C123.73-55.4199 125.977-53.1738 128.662-53.1738ZM53.0273-39.0137C53.0273-34.4727 57.373-31.4453 61.3281-32.7148L61.3281-45.2148C57.3242-46.4844 53.0273-43.5059 53.0273-39.0137ZM128.662 22.168C114.209 22.168 102.49 10.498 102.49-4.00391C102.49-18.7012 114.209-30.2734 128.662-30.2246C143.164-30.1758 154.883-18.7012 154.883-4.00391C154.883 10.498 143.164 22.168 128.662 22.168ZM128.662 4.00391C133.203 4.00391 136.768 0.341797 136.768-4.00391C136.768-8.69141 133.203-12.207 128.662-12.207C124.17-12.207 120.557-8.69141 120.557-4.00391C120.557 0.341797 124.219 4.00391 128.662 4.00391Z"/>
  </g>
  <g id="Heavy-L" transform="matrix(1 0 0 1 2538.86 1556)">
   <path d="M34.6191 1.2207L61.1816 1.2207L61.1816-16.6992C48.3887-15.2832 37.0605-25.293 37.0605-38.4277C37.0605-51.416 48.4863-61.5234 61.1816-60.0586L61.1816-69.873C53.7598-68.5547 46.3867-74.4629 46.3867-82.5195C46.3867-92.6758 57.8613-98.877 66.4062-93.2129C71.7773-101.66 81.25-106.494 93.5547-106.494L98.7793-106.494L98.4375-107.275C95.5566-111.719 90.332-114.111 83.3496-114.111L34.6191-114.111C22.8027-114.111 16.0645-107.373 16.0645-95.5078L16.0645-17.3828C16.0645-5.46875 22.8027 1.2207 34.6191 1.2207ZM71.7285-74.0723L71.7285 20.8496C71.7285 34.8633 79.5898 42.7246 93.5547 42.7246L157.812 42.7246C171.777 42.7246 179.59 34.8633 179.59 20.8496L179.59-74.0723C179.59-88.1348 171.777-95.9473 157.812-95.9473L93.5547-95.9473C79.541-95.9473 71.7285-88.1348 71.7285-74.0723ZM54.541-82.5684C54.541-78.9062 58.5938-76.7578 61.4746-78.8086C61.7188-81.1523 62.1582-83.3008 62.8906-85.3027C60.5957-88.8672 54.541-87.2559 54.541-82.5684ZM125.635-42.5293C116.748-42.5293 109.619-49.5605 109.619-58.5449C109.619-67.5293 116.748-74.6094 125.635-74.6094C134.57-74.5117 141.65-67.5293 141.699-58.5449C141.797-49.6094 134.57-42.5293 125.635-42.5293ZM125.684-52.8809C128.809-52.8809 131.348-55.4199 131.348-58.5449C131.348-61.7188 128.76-64.3066 125.684-64.3066C122.51-64.3066 119.971-61.8652 119.971-58.5449C119.971-55.4199 122.51-52.8809 125.684-52.8809ZM51.3184-38.4277C51.3184-33.1543 56.5918-29.6875 61.1816-31.543L61.1816-45.3125C56.5918-47.1191 51.3184-43.7012 51.3184-38.4277ZM125.684 21.4355C111.133 21.4355 99.4141 9.76562 99.4141-4.83398C99.4141-19.5312 111.133-31.1523 125.684-31.1035C140.186-31.0547 151.953-19.5312 151.953-4.83398C151.953 9.76562 140.186 21.4355 125.684 21.4355ZM125.684 4.05273C130.664 4.05273 134.619 0 134.619-4.83398C134.619-10.0098 130.664-13.8672 125.684-13.8672C120.654-13.8672 116.748-10.0098 116.748-4.83398C116.748 0 120.752 4.05273 125.684 4.05273Z"/>
  </g>
  <g id="Bold-L" transform="matrix(1 0 0 1 2244.96 1556)">
   <path d="M33.0078 1.07422L61.0352 1.07422L61.0352-15.5762C47.6562-13.7207 35.5957-24.0723 35.5957-37.793C35.5957-51.416 47.8027-61.8652 61.0352-59.8633L61.0352-69.7754C53.3691-67.9199 45.5078-73.9258 45.5078-82.2754C45.5078-92.9199 57.8125-98.877 66.2109-92.4805C71.1426-100 79.6387-104.248 90.7715-104.248L97.3633-104.248L97.0703-105.273C94.6777-109.717 89.7461-112.207 83.1055-112.207L33.0078-112.207C22.168-112.207 16.0645-106.104 16.0645-95.2148L16.0645-15.918C16.0645-4.98047 22.168 1.07422 33.0078 1.07422ZM70.6543-74.3652L70.6543 20.4102C70.6543 33.4961 77.7344 40.625 90.7715 40.625L153.857 40.625C166.895 40.625 173.975 33.4961 173.975 20.4102L173.975-74.3652C173.975-87.5 166.943-94.6289 153.857-94.6289L90.7715-94.6289C77.7344-94.6289 70.6543-87.5 70.6543-74.3652ZM52.9297-82.3242C52.9297-77.9297 57.9102-75.3418 61.2793-78.0273C61.4258-80.7129 61.9629-83.1055 62.8906-85.2051C60.2051-89.7949 52.9297-87.8418 52.9297-82.3242ZM122.314-43.6035C113.672-43.6035 106.836-50.3906 106.836-59.082C106.836-67.7246 113.721-74.5605 122.314-74.5117C130.908-74.4629 137.744-67.7246 137.793-59.082C137.891-50.4395 130.908-43.6035 122.314-43.6035ZM122.314-52.5391C125.928-52.5391 128.857-55.4688 128.857-59.082C128.857-62.6953 125.83-65.5762 122.314-65.5762C118.701-65.5762 115.82-62.8418 115.82-59.082C115.82-55.4688 118.701-52.5391 122.314-52.5391ZM49.4629-37.793C49.4629-31.6895 55.7617-27.7344 61.0352-30.2246L61.0352-45.4102C55.7129-47.8027 49.4629-43.9453 49.4629-37.793ZM122.314 20.6055C107.764 20.6055 95.9961 8.88672 95.9961-5.71289C95.9961-20.459 107.764-32.1289 122.314-32.0801C136.865-32.0312 148.633-20.459 148.633-5.71289C148.633 8.88672 136.865 20.6055 122.314 20.6055ZM122.314 4.10156C127.881 4.10156 132.227-0.341797 132.227-5.71289C132.227-11.4258 127.881-15.7227 122.314-15.7227C116.748-15.7227 112.402-11.4258 112.402-5.71289C112.402-0.341797 116.895 4.10156 122.314 4.10156Z"/>
  </g>
  <g id="Semibold-L" transform="matrix(1 0 0 1 1950.18 1556)">
   <path d="M31.8848 0.976562L60.9375 0.976562L60.9375-14.8438C47.168-12.6465 34.5703-23.1934 34.5703-37.3535C34.5703-51.3672 47.3145-62.0605 60.9375-59.7656L60.9375-69.6777C53.125-67.4805 44.9219-73.584 44.9219-82.1289C44.9219-93.0664 57.8125-98.9258 66.0645-91.9922C70.6543-98.8281 78.5156-102.637 88.8184-102.637L96.3379-102.637L96.0938-103.857C94.0918-108.35 89.3555-110.889 82.9102-110.889L31.8848-110.889C21.7285-110.889 16.0645-105.225 16.0645-95.0195L16.0645-14.8926C16.0645-4.6875 21.7285 0.976562 31.8848 0.976562ZM69.873-74.6094L69.873 20.0684C69.873 32.5684 76.4648 39.209 88.8184 39.209L151.172 39.209C163.525 39.209 170.117 32.5684 170.117 20.0684L170.117-74.6094C170.117-87.1094 163.574-93.7012 151.172-93.7012L88.8184-93.7012C76.416-93.7012 69.873-87.1094 69.873-74.6094ZM51.7578-82.1289C51.7578-77.2461 57.4707-74.3652 61.084-77.4902C61.2305-80.4199 61.7676-82.959 62.9395-85.1562C59.9121-90.4297 51.7578-88.2812 51.7578-82.1289ZM119.971-44.3359C111.572-44.3359 104.883-50.9766 104.883-59.4238C104.883-67.8711 111.621-74.5117 119.971-74.4629C128.418-74.4141 135.059-67.8223 135.107-59.4238C135.205-50.9766 128.369-44.3359 119.971-44.3359ZM120.02-52.3438C123.926-52.3438 127.1-55.5176 127.1-59.4238C127.1-63.3301 123.877-66.5039 120.02-66.5039C116.064-66.5039 112.891-63.4766 112.891-59.4238C112.891-55.5176 116.064-52.3438 120.02-52.3438ZM48.1934-37.4023C48.1934-30.6641 55.1758-26.416 60.9375-29.2969L60.9375-45.459C55.127-48.291 48.1934-44.0918 48.1934-37.4023ZM120.02 20.0195C105.42 20.0195 93.6035 8.30078 93.6035-6.34766C93.6035-21.1426 105.42-32.8125 120.02-32.7637C134.619-32.7148 146.387-21.1426 146.387-6.34766C146.387 8.30078 134.619 20.0195 120.02 20.0195ZM120.02 4.15039C125.928 4.15039 130.566-0.585938 130.566-6.34766C130.566-12.4512 125.928-17.041 120.02-17.041C114.062-17.041 109.424-12.4512 109.424-6.34766C109.424-0.585938 114.209 4.15039 120.02 4.15039Z"/>
  </g>
  <g id="Medium-L" transform="matrix(1 0 0 1 1654.93 1556)">
   <path d="M31.0059 0.878906L60.8398 0.878906L60.8398-14.2578C46.7773-11.8164 33.7891-22.5586 33.7891-37.0117C33.7891-51.3672 46.9238-62.2559 60.8398-59.668L60.8398-69.6289C52.9297-67.1875 44.4824-73.291 44.4824-81.9824C44.4824-93.1641 57.8125-98.9258 65.9668-91.6504C70.3125-97.9492 77.6367-101.465 87.3535-101.465L95.6055-101.465L95.4102-102.783C93.6523-107.324 89.0625-109.912 82.7637-109.912L31.0059-109.912C21.3867-109.912 16.0645-104.541 16.0645-94.873L16.0645-14.1113C16.0645-4.39453 21.3867 0.878906 31.0059 0.878906ZM69.2871-74.8047L69.2871 19.873C69.2871 31.8359 75.4883 38.0859 87.3535 38.0859L149.121 38.0859C160.986 38.0859 167.188 31.8359 167.188 19.873L167.188-74.8047C167.188-86.7676 161.035-93.0176 149.121-93.0176L87.3535-93.0176C75.4883-93.0176 69.2871-86.7676 69.2871-74.8047ZM50.9277-81.9824C50.9277-76.709 57.0801-73.6816 60.9863-77.0996C61.084-80.1758 61.6699-82.8613 62.9395-85.1074C59.7168-90.8691 50.9277-88.623 50.9277-81.9824ZM118.262-44.873C110.01-44.873 103.418-51.416 103.418-59.668C103.418-67.9199 110.01-74.5117 118.262-74.4141C126.465-74.3652 133.008-67.9199 133.105-59.668C133.203-51.416 126.465-44.873 118.262-44.873ZM118.262-52.1484C122.412-52.1484 125.781-55.5664 125.781-59.668C125.781-63.8672 122.363-67.1875 118.262-67.1875C114.062-67.1875 110.742-64.0137 110.742-59.668C110.742-55.5664 114.062-52.1484 118.262-52.1484ZM47.168-37.0605C47.168-29.9316 54.6875-25.3906 60.8398-28.6133L60.8398-45.5078C54.6875-48.6328 47.168-44.1895 47.168-37.0605ZM118.262 19.5801C103.613 19.5801 91.8457 7.86133 91.8457-6.83594C91.8457-21.6309 103.613-33.3496 118.262-33.252C132.861-33.2031 144.678-21.6309 144.678-6.83594C144.678 7.86133 132.861 19.5801 118.262 19.5801ZM118.262 4.19922C124.463 4.19922 129.297-0.78125 129.297-6.83594C129.297-13.1836 124.463-18.0176 118.262-18.0176C112.012-18.0176 107.178-13.1836 107.178-6.83594C107.178-0.78125 112.158 4.19922 118.262 4.19922Z"/>
  </g>
  <g id="Regular-L" transform="matrix(1 0 0 1 1360.12 1556)">
   <path d="M29.9316 0.78125L60.7422 0.78125L60.7422-13.5254C46.2891-10.6934 32.7637-21.6797 32.7637-36.5723C32.7637-51.3672 46.4844-62.5 60.7422-59.5703L60.7422-69.5312C52.6855-66.748 43.8965-72.9004 43.8965-81.7871C43.8965-93.3594 57.8125-98.9746 65.8691-91.1621C69.873-96.8262 76.5137-99.9023 85.4492-99.9023L94.6289-99.9023L94.4824-101.416C93.0664-105.957 88.6719-108.594 82.6172-108.594L29.9316-108.594C20.9961-108.594 16.0645-103.662 16.0645-94.6777L16.0645-13.1348C16.0645-4.10156 20.9961 0.78125 29.9316 0.78125ZM68.5547-75.0488L68.5547 19.5312C68.5547 30.8594 74.2188 36.6699 85.4492 36.6699L146.436 36.6699C157.666 36.6699 163.379 30.8594 163.379 19.5312L163.379-75.0488C163.379-86.377 157.715-92.1387 146.436-92.1387L85.4492-92.1387C74.2188-92.1387 68.5547-86.377 68.5547-75.0488ZM49.7559-81.7871C49.7559-76.0254 56.6406-72.7051 60.791-76.5625C60.8887-79.8828 61.5234-82.7148 62.9395-85.0586C59.4727-91.5039 49.7559-89.0137 49.7559-81.7871ZM115.967-45.6055C107.959-45.6055 101.514-51.9531 101.514-60.0098C101.514-68.0664 107.959-74.4629 115.967-74.3652C123.975-74.3164 130.371-68.0176 130.42-60.0098C130.518-52.002 123.926-45.6055 115.967-45.6055ZM115.967-51.9531C120.459-51.9531 124.023-55.5664 124.023-60.0098C124.023-64.502 120.361-68.0664 115.967-68.0664C111.426-68.0664 107.861-64.6484 107.861-60.0098C107.861-55.5664 111.475-51.9531 115.967-51.9531ZM45.8984-36.6211C45.8984-28.9062 54.1016-24.0723 60.7422-27.6855L60.7422-45.5566C54.1016-49.0723 45.8984-44.3359 45.8984-36.6211ZM115.967 18.9941C101.318 18.9941 89.502 7.27539 89.502-7.4707C89.502-22.2656 101.318-34.0332 115.967-33.9355C130.615-33.8867 142.432-22.2656 142.432-7.4707C142.432 7.27539 130.615 18.9941 115.967 18.9941ZM115.967 4.24805C122.559 4.24805 127.637-1.02539 127.637-7.4707C127.637-14.1602 122.559-19.2871 115.967-19.2871C109.375-19.2871 104.248-14.1602 104.248-7.4707C104.248-1.02539 109.521 4.24805 115.967 4.24805Z"/>
  </g>
  <g id="Light-L" transform="matrix(1 0 0 1 1066.05 1556)">
   <path d="M29.0527 0.146484L59.0332 0.146484L59.0332-13.8184C45.1172-11.6699 32.2754-22.4121 32.2754-36.7676C32.2754-51.0254 45.166-61.9141 59.0332-59.6191L59.0332-69.3848C51.1719-67.2363 43.3105-73.1934 43.3105-81.4453C43.3105-92.7734 57.1289-98.0957 64.7949-90.2832C68.5059-94.6777 74.1211-97.0215 81.5918-97.0215L93.75-97.0215L93.6523-99.2188C92.7734-104.688 88.2812-108.057 81.8848-108.057L29.0527-108.057C20.8984-108.057 16.0645-103.223 16.0645-95.0195L16.0645-12.8418C16.0645-4.63867 20.8984 0.146484 29.0527 0.146484ZM65.7227-74.3164L65.7227 20.166C65.7227 30.7129 71.0938 36.1816 81.5918 36.1816L142.188 36.1816C152.686 36.1816 158.105 30.7129 158.105 20.166L158.105-74.3164C158.105-84.9121 152.734-90.332 142.188-90.332L81.5918-90.332C71.0449-90.332 65.7227-84.9121 65.7227-74.3164ZM48.1934-81.4453C48.1934-75.7324 54.541-72.0703 59.0332-75C59.1309-79.3457 59.9609-82.8613 62.0605-85.6445C57.8125-91.8457 48.1934-88.8672 48.1934-81.4453ZM111.914-45.3613C104.053-45.3613 97.8027-51.5625 97.8027-59.4238C97.8027-67.1875 104.102-73.4375 111.914-73.3398C119.727-73.291 125.928-67.1387 125.977-59.4238C126.025-51.6113 119.678-45.3613 111.914-45.3613ZM111.914-50.5371C116.797-50.5371 120.752-54.4922 120.752-59.4238C120.752-64.2578 116.748-68.2129 111.914-68.2129C106.934-68.2129 103.027-64.4531 103.027-59.4238C103.027-54.4922 106.982-50.5371 111.914-50.5371ZM44.6777-36.8164C44.6777-29.3945 52.0508-24.2676 59.0332-26.9043L59.0332-46.6797C52.1484-49.2676 44.6777-44.2871 44.6777-36.8164ZM111.914 19.2871C97.2656 19.2871 85.498 7.61719 85.498-7.08008C85.498-21.8262 97.2656-33.5449 111.914-33.4473C126.514-33.4473 138.281-21.8262 138.281-7.08008C138.281 7.61719 126.514 19.2871 111.914 19.2871ZM111.914 5.27344C118.799 5.27344 124.219-0.244141 124.219-7.08008C124.219-14.1602 118.799-19.5312 111.914-19.5312C104.98-19.5312 99.5605-14.1602 99.5605-7.08008C99.5605-0.244141 105.127 5.27344 111.914 5.27344Z"/>
  </g>
  <g id="Thin-L" transform="matrix(1 0 0 1 772.853 1556)">
   <path d="M27.9297-0.683594L56.7383-0.683594L56.7383-14.2578C43.5059-12.8906 31.5918-23.3398 31.5918-37.0605C31.5918-50.5371 43.457-61.1816 56.7383-59.7656L56.7383-69.1895C49.1211-67.8223 42.5781-73.584 42.5781-81.0059C42.5781-91.9922 56.2012-96.9238 63.3789-89.1113C66.6504-91.8457 70.9473-93.2129 76.4648-93.2129L92.627-93.2129L92.5781-96.3379C92.3828-102.93 87.793-107.275 80.957-107.275L27.9297-107.275C20.752-107.275 16.0645-102.637 16.0645-95.459L16.0645-12.5C16.0645-5.32227 20.752-0.683594 27.9297-0.683594ZM46.1426-81.0059C46.1426-75.3418 51.7578-71.1914 56.7383-72.9492C56.7383-78.5645 57.959-83.0566 60.9375-86.4746C55.6641-92.334 46.1426-88.623 46.1426-81.0059ZM61.9141-73.3887L61.9141 20.9473C61.9141 30.4688 66.9434 35.5957 76.4648 35.5957L136.572 35.5957C146.094 35.5957 151.074 30.4688 151.074 20.9473L151.074-73.3887C151.074-83.0078 146.143-87.9883 136.572-87.9883L76.4648-87.9883C66.8945-87.9883 61.9141-83.0078 61.9141-73.3887ZM106.494-45.0684C98.9746-45.0684 92.9688-51.0254 92.9688-58.5938C92.9688-66.0645 99.0234-72.0703 106.494-71.9727C114.062-71.9238 120.068-65.9668 120.068-58.5938C120.117-51.0742 114.014-45.0684 106.494-45.0684ZM106.494-48.6328C112.012-48.6328 116.455-53.0762 116.455-58.5938C116.455-63.9648 111.914-68.4082 106.494-68.4082C100.977-68.4082 96.582-64.1602 96.582-58.5938C96.582-53.0762 101.025-48.6328 106.494-48.6328ZM43.0176-37.0605C43.0176-30.0293 49.3652-24.5117 56.7383-25.8789L56.7383-48.1445C49.5605-49.5117 43.0176-44.2383 43.0176-37.0605ZM106.494 19.7266C91.9434 19.7266 80.2734 8.05664 80.2734-6.5918C80.2734-21.2891 91.9434-32.959 106.494-32.8613C121.094-32.8613 132.764-21.2891 132.764-6.5918C132.764 8.05664 121.094 19.7266 106.494 19.7266ZM106.494 6.5918C113.867 6.5918 119.727 0.732422 119.727-6.5918C119.727-14.1113 113.867-19.8242 106.494-19.8242C99.1699-19.8242 93.3105-14.1113 93.3105-6.5918C93.3105 0.732422 99.3164 6.5918 106.494 6.5918Z"/>
  </g>
  <g id="Ultralight-L" transform="matrix(1 0 0 1 477.924 1556)">
   <path d="M27.3438-1.12305L55.5664-1.12305L55.5664-14.4531C42.6758-13.5254 31.25-23.8281 31.25-37.207C31.25-50.2441 42.5781-60.8398 55.5664-59.8145L55.5664-69.0918C48.0469-68.1641 42.1875-73.8281 42.1875-80.7617C42.1875-91.6016 55.7129-96.3379 62.6953-88.5254C65.7227-90.3809 69.3359-91.2598 73.8281-91.2598L92.041-91.2598L92.041-94.873C92.1875-102.1 87.5-106.885 80.4688-106.885L27.3438-106.885C20.7031-106.885 16.0645-102.344 16.0645-95.7031L16.0645-12.3535C16.0645-5.71289 20.7031-1.12305 27.3438-1.12305ZM45.0684-80.7617C45.0684-75.1465 50.3418-70.752 55.5176-71.9238C55.5176-78.1738 56.8848-83.1543 60.3516-86.8652C54.541-92.5781 45.0684-88.5254 45.0684-80.7617ZM60.0098-72.9004L60.0098 21.3867C60.0098 30.3711 64.7949 35.2539 73.8281 35.2539L133.691 35.2539C142.725 35.2539 147.51 30.3711 147.51 21.3867L147.51-72.9004C147.51-81.9824 142.773-86.8164 133.691-86.8164L73.8281-86.8164C64.7461-86.8164 60.0098-81.9824 60.0098-72.9004ZM103.76-44.9219C96.3379-44.9219 90.4785-50.7324 90.4785-58.1543C90.4785-65.4785 96.4355-71.3379 103.76-71.2891C111.182-71.1914 117.09-65.3809 117.041-58.1543C117.041-50.8301 111.084-44.9219 103.76-44.9219ZM103.76-47.6562C109.521-47.6562 114.209-52.3926 114.209-58.1543C114.209-63.8184 109.424-68.5547 103.76-68.5547C97.9004-68.5547 93.3105-63.9648 93.3105-58.1543C93.3105-52.3926 97.998-47.6562 103.76-47.6562ZM42.1875-37.1582C42.1875-30.3711 47.9492-24.6582 55.5664-25.3418L55.5664-48.9258C48.2422-49.6582 42.1875-44.1895 42.1875-37.1582ZM103.76 19.9219C89.209 19.9219 77.5879 8.25195 77.5879-6.34766C77.5879-20.9961 89.209-32.6172 103.76-32.5684C118.311-32.5684 129.932-20.9961 129.932-6.34766C129.932 8.25195 118.311 19.9219 103.76 19.9219ZM103.76 7.27539C111.328 7.27539 117.383 1.26953 117.383-6.34766C117.383-14.1113 111.328-19.9707 103.76-19.9707C96.1914-19.9707 90.1367-14.1113 90.1367-6.34766C90.1367 1.26953 96.3379 7.27539 103.76 7.27539Z"/>
  </g>
  <g id="Black-M" transform="matrix(1 0 0 1 2853.66 1126)">
   <path d="M29.4434-7.03125L46.7773-7.03125L46.7773-23.0957C38.2324-23.291 31.25-30.3223 31.25-39.0137C31.25-47.6074 38.1836-54.6387 46.7773-54.834L46.7773-62.2559C41.5039-62.4512 37.2559-66.7969 37.2559-72.168C37.2559-79.0039 44.4336-84.0332 51.2695-81.0547C56.1523-88.7207 64.7949-93.2617 75.7324-93.2617L78.8086-93.2617L78.418-93.75C75.5371-97.6074 70.8984-99.6582 64.7461-99.6582L29.4434-99.6582C18.7988-99.6582 12.4512-93.3105 12.4512-82.666L12.4512-24.0723C12.4512-13.3789 18.7988-7.03125 29.4434-7.03125ZM56.2012-64.3066L56.2012 9.375C56.2012 21.6309 63.4766 28.9551 75.7324 28.9551L127.441 28.9551C139.746 28.9551 147.021 21.6309 147.021 9.375L147.021-64.3066C147.021-76.5625 139.746-83.8867 127.441-83.8867L75.7324-83.8867C63.4766-83.8867 56.2012-76.5625 56.2012-64.3066ZM44.5801-72.2168C44.5801-70.8008 45.6055-69.7266 47.168-69.6289C47.4121-71.2891 47.8027-72.9492 48.2422-74.5117C46.8262-75.2441 44.5801-74.2676 44.5801-72.2168ZM101.562-38.7695C94.1406-38.7695 88.3789-44.5801 88.3789-52.002C88.3789-59.4727 94.1406-65.332 101.562-65.332C108.984-65.2832 114.795-59.4727 114.844-52.002C114.893-44.5801 108.984-38.7695 101.562-38.7695ZM101.611-48.7305C103.369-48.7305 104.883-50.2441 104.883-52.002C104.883-53.8574 103.32-55.3223 101.611-55.3223C99.8047-55.3223 98.3398-53.9062 98.3398-52.002C98.3398-50.2441 99.8047-48.7305 101.611-48.7305ZM42.6758-39.0137C42.6758-36.6699 44.4336-34.7168 46.7773-34.4727L46.7773-43.457C44.4336-43.2617 42.6758-41.3574 42.6758-39.0137ZM101.611 10.4492C90.4785 10.4492 81.4453 1.41602 81.4453-9.7168C81.4453-21.0449 90.4785-29.9805 101.611-29.9316C112.744-29.9316 121.777-21.0449 121.777-9.7168C121.777 1.41602 112.744 10.4492 101.611 10.4492ZM101.611-4.39453C104.639-4.39453 107.08-6.83594 107.08-9.7168C107.08-12.9395 104.639-15.2832 101.611-15.2832C98.584-15.2832 96.1426-12.9395 96.1426-9.7168C96.1426-6.83594 98.584-4.39453 101.611-4.39453Z"/>
  </g>
  <g id="Heavy-M" transform="matrix(1 0 0 1 2559 1126)">
   <path d="M28.0762-7.03125L47.1191-7.03125L47.1191-21.9727C37.8418-21.5332 29.9316-28.9062 29.9316-38.3301C29.9316-47.6562 37.8418-55.127 47.1191-54.6387L47.1191-62.1582C41.5527-61.7188 36.5723-66.2109 36.5723-72.0215C36.5723-79.3945 44.6289-84.2773 51.3184-80.5664C55.8594-87.6465 63.8184-91.7969 74.0234-91.7969L77.6367-91.7969L77.2949-92.334C74.7559-95.9961 70.4102-97.9492 64.6484-97.9492L28.0762-97.9492C18.2129-97.9492 12.4512-92.1875 12.4512-82.3242L12.4512-22.7051C12.4512-12.793 18.2129-7.03125 28.0762-7.03125ZM55.8594-64.7949L55.8594 8.78906C55.8594 20.3125 62.5 27.002 74.0234 27.002L124.707 27.002C136.279 27.002 142.92 20.3125 142.92 8.78906L142.92-64.7949C142.92-76.3672 136.279-83.0078 124.707-83.0078L74.0234-83.0078C62.5-83.0078 55.8594-76.3672 55.8594-64.7949ZM43.3594-72.0703C43.3594-69.9219 45.459-68.5059 47.4121-69.2871C47.6074-71.0449 47.998-72.7051 48.4863-74.2676C46.875-76.0742 43.3594-74.9023 43.3594-72.0703ZM99.3164-39.8438C92.1875-39.8438 86.5723-45.459 86.5723-52.6855C86.5723-59.8633 92.1875-65.5273 99.3164-65.5273C106.494-65.4785 112.158-59.8633 112.207-52.6855C112.256-45.5078 106.494-39.8438 99.3164-39.8438ZM99.3652-48.8281C101.514-48.8281 103.223-50.5371 103.223-52.6855C103.223-54.834 101.465-56.5918 99.3652-56.5918C97.2656-56.5918 95.5078-54.9316 95.5078-52.6855C95.5078-50.5371 97.2656-48.8281 99.3652-48.8281ZM41.1621-38.3301C41.1621-35.1074 44.0918-32.7637 47.1191-33.3984L47.1191-43.2617C44.0918-43.8477 41.1621-41.5527 41.1621-38.3301ZM99.3652 9.57031C88.1836 9.57031 79.1016 0.488281 79.1016-10.6934C79.1016-22.0703 88.1836-31.0547 99.3652-31.0059C110.596-30.957 119.629-22.0703 119.629-10.6934C119.629 0.488281 110.596 9.57031 99.3652 9.57031ZM99.3652-4.58984C102.832-4.58984 105.615-7.37305 105.615-10.6934C105.615-14.3555 102.832-17.041 99.3652-17.041C95.8984-17.041 93.1152-14.3555 93.1152-10.6934C93.1152-7.37305 95.9473-4.58984 99.3652-4.58984Z"/>
  </g>
  <g id="Bold-M" transform="matrix(1 0 0 1 2264.59 1126)">
   <path d="M26.5625-6.98242L47.4121-6.98242L47.4121-20.6543C37.4023-19.4824 28.4668-27.2949 28.4668-37.5977C28.4668-47.7539 37.4512-55.6641 47.4121-54.4434L47.4121-62.0605C41.6504-60.9375 35.791-65.5273 35.791-71.8262C35.791-79.7852 44.8242-84.5703 51.4648-80.0293C55.5664-86.4746 62.7441-90.1367 72.1191-90.1367L76.3184-90.1367L76.0742-90.7715C73.877-94.1895 69.9219-96.0449 64.5996-96.0449L26.5625-96.0449C17.5781-96.0449 12.4512-90.918 12.4512-81.8848L12.4512-21.1426C12.4512-12.1094 17.5781-6.98242 26.5625-6.98242ZM55.4688-65.3809L55.4688 8.10547C55.4688 18.8477 61.377 24.8535 72.1191 24.8535L121.68 24.8535C132.373 24.8535 138.33 18.8477 138.33 8.10547L138.33-65.3809C138.33-76.123 132.373-82.0801 121.68-82.0801L72.1191-82.0801C61.377-82.0801 55.4688-76.123 55.4688-65.3809ZM42.041-71.875C42.041-68.8965 45.3125-67.1875 47.6562-68.8965C47.8027-70.752 48.1934-72.4609 48.7793-74.0234C46.9238-76.9531 42.041-75.6348 42.041-71.875ZM96.875-41.0645C89.9902-41.0645 84.5703-46.4844 84.5703-53.418C84.5703-60.3027 89.9902-65.7715 96.875-65.7227C103.76-65.6738 109.18-60.3027 109.229-53.418C109.326-46.4844 103.76-41.0645 96.875-41.0645ZM96.875-48.877C99.4141-48.877 101.416-50.9277 101.416-53.418C101.416-55.957 99.3164-57.959 96.875-57.959C94.3848-57.959 92.334-56.0547 92.334-53.418C92.334-50.9277 94.3848-48.877 96.875-48.877ZM39.502-37.5977C39.502-33.3496 43.75-30.6152 47.4121-32.1777L47.4121-43.0176C43.75-44.5312 39.502-41.8457 39.502-37.5977ZM96.875 8.54492C85.6445 8.54492 76.5137-0.537109 76.5137-11.8164C76.5137-23.2422 85.6445-32.2754 96.875-32.1777C108.154-32.1777 117.285-23.2422 117.285-11.8164C117.285-0.537109 108.154 8.54492 96.875 8.54492ZM96.875-4.78516C100.879-4.78516 104.004-8.00781 104.004-11.8164C104.004-15.918 100.879-18.9941 96.875-18.9941C92.9199-18.9941 89.7949-15.918 89.7949-11.8164C89.7949-8.00781 92.9688-4.78516 96.875-4.78516Z"/>
  </g>
  <g id="Semibold-M" transform="matrix(1 0 0 1 1969.46 1126)">
   <path d="M25.5371-6.98242L47.6562-6.98242L47.6562-19.7754C37.1094-18.1152 27.4414-26.2207 27.4414-37.0605C27.4414-47.8516 37.207-56.0059 47.6562-54.2969L47.6562-62.0117C41.6504-60.3516 35.2539-65.0879 35.2539-71.7285C35.2539-80.0781 44.9707-84.7656 51.5137-79.6875C55.3223-85.6445 62.0117-89.0137 70.752-89.0137L75.3906-89.0137L75.1953-89.6484C73.291-92.9688 69.5801-94.7266 64.502-94.7266L25.5371-94.7266C17.0898-94.7266 12.4512-90.0391 12.4512-81.6406L12.4512-20.0684C12.4512-11.6211 17.0898-6.98242 25.5371-6.98242ZM55.2246-65.7715L55.2246 7.66602C55.2246 17.8711 60.6445 23.3398 70.752 23.3398L119.58 23.3398C129.688 23.3398 135.156 17.8711 135.156 7.66602L135.156-65.7715C135.156-75.9766 129.736-81.4453 119.58-81.4453L70.752-81.4453C60.6445-81.4453 55.2246-75.9766 55.2246-65.7715ZM41.1133-71.7285C41.1133-68.2129 45.2148-66.2598 47.8027-68.6035C47.9492-70.5566 48.291-72.2656 48.9258-73.8281C46.9727-77.5879 41.1133-76.123 41.1133-71.7285ZM95.166-41.8945C88.4766-41.8945 83.1543-47.2168 83.1543-53.9062C83.1543-60.6445 88.5254-65.918 95.166-65.918C101.855-65.8203 107.129-60.5957 107.178-53.9062C107.275-47.2168 101.855-41.8945 95.166-41.8945ZM95.166-48.9258C97.9492-48.9258 100.195-51.1719 100.195-53.9062C100.195-56.6895 97.9004-58.9355 95.166-58.9355C92.3828-58.9355 90.1855-56.7871 90.1855-53.9062C90.1855-51.1719 92.3828-48.9258 95.166-48.9258ZM38.3301-37.1094C38.3301-32.1777 43.5059-29.1016 47.6562-31.2988L47.6562-42.8711C43.5059-45.0195 38.3301-41.9922 38.3301-37.1094ZM95.166 7.8125C83.8867 7.8125 74.7559-1.2207 74.7559-12.5977C74.7559-24.0234 83.8867-33.1055 95.166-33.0078C106.494-33.0078 115.625-24.0234 115.625-12.5977C115.625-1.2207 106.494 7.8125 95.166 7.8125ZM95.166-4.93164C99.5117-4.93164 102.832-8.39844 102.832-12.5977C102.832-16.9922 99.5117-20.3613 95.166-20.3613C90.8691-20.3613 87.5-16.9922 87.5-12.5977C87.5-8.39844 90.9668-4.93164 95.166-4.93164Z"/>
  </g>
  <g id="Medium-M" transform="matrix(1 0 0 1 1673.95 1126)">
   <path d="M24.707-6.98242L47.8516-6.98242L47.8516-19.0918C36.8652-17.041 26.6602-25.3906 26.6602-36.6699C26.6602-47.9004 37.0117-56.2988 47.8516-54.1504L47.8516-61.9629C41.6992-59.9609 34.8633-64.7461 34.8633-71.6309C34.8633-80.3223 45.0684-84.9121 51.5625-79.3945C55.1758-85.0098 61.4258-88.1348 69.7754-88.1348L74.707-88.1348L74.5117-88.8184C72.8516-91.9922 69.2871-93.75 64.4531-93.75L24.707-93.75C16.748-93.75 12.4512-89.4043 12.4512-81.3965L12.4512-19.2871C12.4512-11.2793 16.748-6.98242 24.707-6.98242ZM54.9805-66.0645L54.9805 7.32422C54.9805 17.0898 60.0586 22.2168 69.7754 22.2168L117.969 22.2168C127.686 22.2168 132.764 17.0898 132.764 7.32422L132.764-66.0645C132.764-75.8789 127.686-80.957 117.969-80.957L69.7754-80.957C60.0586-80.957 54.9805-75.8789 54.9805-66.0645ZM40.3809-71.6309C40.3809-67.6758 45.166-65.5762 47.9492-68.4082C48.0957-70.3613 48.3887-72.1191 49.0723-73.6816C46.9727-78.0273 40.3809-76.5137 40.3809-71.6309ZM93.8477-42.5781C87.3535-42.5781 82.1289-47.7539 82.1289-54.2969C82.1289-60.8887 87.3535-66.0645 93.8477-66.0156C100.391-65.9668 105.566-60.8398 105.615-54.2969C105.713-47.7539 100.391-42.5781 93.8477-42.5781ZM93.8965-48.9258C96.875-48.9258 99.2188-51.3672 99.2188-54.2969C99.2188-57.2754 96.7773-59.668 93.8965-59.668C90.8691-59.668 88.5254-57.373 88.5254-54.2969C88.5254-51.3672 90.918-48.9258 93.8965-48.9258ZM37.4512-36.7188C37.4512-31.25 43.3594-27.9785 47.8516-30.6641L47.8516-42.7734C43.3105-45.4102 37.4512-42.1387 37.4512-36.7188ZM93.8965 7.27539C82.5195 7.27539 73.3887-1.75781 73.3887-13.1836C73.3887-24.6094 82.5195-33.7402 93.8965-33.6426C105.225-33.6426 114.355-24.6094 114.355-13.1836C114.355-1.75781 105.225 7.27539 93.8965 7.27539ZM93.8965-5.07812C98.4375-5.07812 102.002-8.74023 102.002-13.1836C102.002-17.8223 98.4375-21.3867 93.8965-21.3867C89.3066-21.3867 85.7422-17.8223 85.7422-13.1836C85.7422-8.74023 89.4043-5.07812 93.8965-5.07812Z"/>
  </g>
  <g id="Regular-M" transform="matrix(1 0 0 1 1378.8 1126)">
   <path d="M23.6816-6.93359L48.0957-6.93359L48.0957-18.2129C36.5723-15.6738 25.6836-24.3164 25.6836-36.1816C25.6836-47.9492 36.7676-56.6895 48.0957-54.0039L48.0957-61.8652C41.748-59.4238 34.3262-64.2578 34.3262-71.5332C34.3262-80.5664 45.2148-85.1074 51.6113-79.0527C54.9316-84.1797 60.6934-87.0117 68.457-87.0117L73.8281-87.0117L73.6816-87.7441C72.2656-90.7715 68.9453-92.4316 64.4043-92.4316L23.6816-92.4316C16.3086-92.4316 12.4512-88.5254 12.4512-81.1035L12.4512-18.2617C12.4512-10.791 16.3086-6.93359 23.6816-6.93359ZM54.7363-66.4551L54.7363 6.88477C54.7363 16.1133 59.3262 20.752 68.457 20.752L115.918 20.752C125.049 20.752 129.639 16.1133 129.639 6.88477L129.639-66.4551C129.639-75.6836 125.049-80.3223 115.918-80.3223L68.457-80.3223C59.3262-80.3223 54.7363-75.6836 54.7363-66.4551ZM39.4531-71.5332C39.4531-66.9922 45.0684-64.6484 48.1445-68.1641C48.2422-70.166 48.5352-71.9727 49.2676-73.5352C47.0215-78.6621 39.4531-77.002 39.4531-71.5332ZM92.1875-43.4082C85.8398-43.4082 80.7617-48.4375 80.7617-54.7852C80.7617-61.1816 85.8398-66.2109 92.1875-66.1621C98.5352-66.1133 103.564-61.1816 103.613-54.7852C103.711-48.4375 98.4863-43.4082 92.1875-43.4082ZM92.1875-48.9746C95.4102-48.9746 97.998-51.6113 97.998-54.7852C97.998-58.0566 95.3613-60.5957 92.1875-60.5957C88.916-60.5957 86.377-58.1543 86.377-54.7852C86.377-51.6113 88.916-48.9746 92.1875-48.9746ZM36.2793-36.2305C36.2793-30.0781 43.1152-26.4648 48.0957-29.834L48.0957-42.627C43.0664-45.8496 36.2793-42.334 36.2793-36.2305ZM92.1875 6.5918C80.8105 6.5918 71.6309-2.49023 71.6309-13.916C71.6309-25.3906 80.8105-34.5703 92.1875-34.4727C103.564-34.4238 112.744-25.3906 112.744-13.916C112.744-2.49023 103.564 6.5918 92.1875 6.5918ZM92.1875-5.22461C97.1191-5.22461 100.879-9.13086 100.879-13.916C100.879-18.8965 97.1191-22.7051 92.1875-22.7051C87.2559-22.7051 83.4961-18.8965 83.4961-13.916C83.4961-9.13086 87.4023-5.22461 92.1875-5.22461Z"/>
  </g>
  <g id="Light-M" transform="matrix(1 0 0 1 1084.48 1126)">
   <path d="M22.9004-7.51953L46.5332-7.51953L46.5332-18.5059C35.498-16.5527 25.2441-24.9512 25.2441-36.3281C25.2441-47.6074 35.5957-56.1523 46.5332-54.1016L46.5332-61.7676C40.332-59.8145 33.8379-64.5508 33.8379-71.1914C33.8379-80.0781 44.5801-84.3262 50.6836-78.2715C53.7109-82.2754 58.5449-84.4238 64.9414-84.4238L73.0469-84.4238L72.9492-85.791C72.0215-89.5996 68.6035-91.8945 63.7695-91.8945L22.9004-91.8945C16.2109-91.8945 12.4512-88.1348 12.4512-81.4453L12.4512-18.0176C12.4512-11.2793 16.2109-7.51953 22.9004-7.51953ZM52.1973-65.8203L52.1973 7.42188C52.1973 15.9668 56.4941 20.3125 64.9414 20.3125L112.109 20.3125C120.557 20.3125 124.854 15.9668 124.854 7.42188L124.854-65.8203C124.854-74.4141 120.605-78.7598 112.109-78.7598L64.9414-78.7598C56.4941-78.7598 52.1973-74.4141 52.1973-65.8203ZM38.0859-71.1914C38.0859-66.748 43.2129-64.0625 46.5332-66.748C46.6309-69.6777 47.168-72.0703 48.4863-74.0723C45.5566-78.9551 38.0859-76.8555 38.0859-71.1914ZM88.5254-43.2129C82.373-43.2129 77.4414-48.0469 77.4414-54.248C77.4414-60.4004 82.4219-65.2832 88.5254-65.2344C94.6777-65.1855 99.6094-60.3516 99.6094-54.248C99.707-48.0957 94.6777-43.2129 88.5254-43.2129ZM88.5254-47.7051C92.1387-47.7051 95.0684-50.6348 95.0684-54.248C95.0684-57.8125 92.0898-60.7422 88.5254-60.7422C84.8633-60.7422 81.9824-57.959 81.9824-54.248C81.9824-50.6348 84.9121-47.7051 88.5254-47.7051ZM35.1562-36.377C35.1562-30.5176 41.2598-26.6602 46.5332-29.1504L46.5332-43.6035C41.3086-46.0449 35.1562-42.2852 35.1562-36.377ZM88.5254 6.88477C77.1973 6.88477 68.0664-2.19727 68.0664-13.5742C68.0664-25.0488 77.1973-34.1309 88.5254-34.082C99.9023-34.0332 109.033-25.0488 109.033-13.5742C109.033-2.19727 99.9023 6.88477 88.5254 6.88477ZM88.5254-4.29688C93.75-4.29688 97.8027-8.49609 97.8027-13.5742C97.8027-18.8965 93.75-22.9492 88.5254-22.9492C83.3008-22.9492 79.248-18.8965 79.248-13.5742C79.248-8.49609 83.4473-4.29688 88.5254-4.29688Z"/>
  </g>
  <g id="Thin-M" transform="matrix(1 0 0 1 790.895 1126)">
   <path d="M21.9238-8.30078L44.4824-8.30078L44.4824-18.8965C34.082-17.6758 24.6094-25.8301 24.6094-36.5723C24.6094-47.168 34.0332-55.5176 44.4824-54.1992L44.4824-61.5723C38.4766-60.3516 33.1543-64.8926 33.1543-70.8008C33.1543-79.3945 43.75-83.3008 49.4141-77.2461C52.0508-79.6875 55.6641-81.0059 60.3516-81.0059L72.0215-81.0059L71.9727-83.2031C71.6797-88.0859 68.1152-91.2598 62.9395-91.2598L21.9238-91.2598C16.1133-91.2598 12.4512-87.5977 12.4512-81.8359L12.4512-17.7246C12.4512-11.9141 16.1133-8.30078 21.9238-8.30078ZM36.1816-70.8008C36.1816-66.4062 40.7227-63.2812 44.4824-64.9414C44.4824-68.9941 45.3613-72.2656 47.4609-74.7559C43.6035-79.3945 36.1816-76.6602 36.1816-70.8008ZM48.8281-64.9902L48.8281 8.1543C48.8281 15.7715 52.7832 19.7754 60.3516 19.7754L107.08 19.7754C114.648 19.7754 118.604 15.7715 118.604 8.1543L118.604-64.9902C118.604-72.6562 114.697-76.6602 107.08-76.6602L60.3516-76.6602C52.7344-76.6602 48.8281-72.6562 48.8281-64.9902ZM83.6914-42.9199C77.7832-42.9199 73.0957-47.5586 73.0957-53.5156C73.0957-59.375 77.832-64.0625 83.6914-64.0137C89.5996-63.9648 94.3359-59.3262 94.3359-53.5156C94.3359-47.6074 89.5508-42.9199 83.6914-42.9199ZM83.6914-46.0449C87.8418-46.0449 91.1621-49.3652 91.1621-53.5156C91.1621-57.5684 87.793-60.9375 83.6914-60.9375C79.541-60.9375 76.2207-57.7148 76.2207-53.5156C76.2207-49.3652 79.5898-46.0449 83.6914-46.0449ZM33.6914-36.5723C33.6914-31.0547 38.8184-26.8555 44.4824-28.2227L44.4824-44.9219C38.9648-46.2402 33.6914-42.1875 33.6914-36.5723ZM83.6914 7.27539C72.4121 7.27539 63.3301-1.80664 63.3301-13.1348C63.3301-24.5117 72.4121-33.5938 83.6914-33.5449C95.0195-33.4961 104.102-24.5117 104.102-13.1348C104.102-1.80664 95.0195 7.27539 83.6914 7.27539ZM83.6914-3.125C89.3066-3.125 93.75-7.56836 93.75-13.1348C93.75-18.8965 89.3066-23.2422 83.6914-23.2422C78.125-23.2422 73.6816-18.8965 73.6816-13.1348C73.6816-7.56836 78.2227-3.125 83.6914-3.125Z"/>
  </g>
  <g id="Ultralight-M" transform="matrix(1 0 0 1 495.795 1126)">
   <path d="M21.3867-8.69141L43.4082-8.69141L43.4082-19.0918C33.3496-18.2129 24.3164-26.2695 24.3164-36.7188C24.3164-46.9727 33.252-55.1758 43.4082-54.2969L43.4082-61.4746C37.5488-60.6445 32.8125-65.0879 32.8125-70.6055C32.8125-79.0527 43.3105-82.7637 48.7793-76.709C51.2207-78.418 54.1992-79.248 58.0078-79.248L71.4844-79.248L71.4844-81.8848C71.5332-87.3047 67.9199-90.8691 62.5488-90.8691L21.3867-90.8691C16.0645-90.8691 12.4512-87.3535 12.4512-82.0312L12.4512-17.5293C12.4512-12.207 16.0645-8.69141 21.3867-8.69141ZM35.2539-70.6055C35.2539-66.2109 39.4531-62.8906 43.4082-63.9648C43.4082-68.6523 44.4336-72.3633 46.9238-75.0977C42.5781-79.5898 35.2539-76.5625 35.2539-70.6055ZM47.0703-64.5996L47.0703 8.54492C47.0703 15.6738 50.8789 19.4824 58.0078 19.4824L104.492 19.4824C111.621 19.4824 115.381 15.6738 115.381 8.54492L115.381-64.5996C115.381-71.7773 111.67-75.5371 104.492-75.5371L58.0078-75.5371C50.8301-75.5371 47.0703-71.7773 47.0703-64.5996ZM81.25-42.7734C75.4395-42.7734 70.8496-47.3145 70.8496-53.125C70.8496-58.8379 75.5371-63.4277 81.25-63.3789C87.0117-63.3301 91.6504-58.7891 91.6504-53.125C91.6504-47.4121 86.9629-42.7734 81.25-42.7734ZM81.25-45.166C85.6445-45.166 89.209-48.7305 89.209-53.125C89.209-57.4219 85.5469-60.9863 81.25-60.9863C76.8066-60.9863 73.291-57.5684 73.291-53.125C73.291-48.7305 76.8555-45.166 81.25-45.166ZM32.959-36.7188C32.959-31.3477 37.5977-27.002 43.4082-27.7344L43.4082-45.6055C37.793-46.3867 32.959-42.1875 32.959-36.7188ZM81.25 7.4707C69.9707 7.4707 60.9375-1.61133 60.9375-12.9395C60.9375-24.2676 69.9707-33.3008 81.25-33.252C92.5293-33.252 101.562-24.2676 101.562-12.9395C101.562-1.61133 92.5293 7.4707 81.25 7.4707ZM81.25-2.49023C87.0605-2.49023 91.6992-7.12891 91.6992-12.9395C91.6992-18.8477 87.0605-23.3887 81.25-23.3887C75.4395-23.3887 70.8008-18.8477 70.8008-12.9395C70.8008-7.12891 75.5371-2.49023 81.25-2.49023Z"/>
  </g>
  <g id="Black-S" transform="matrix(1 0 0 1 2871.05 696)">
   <path d="M22.998-13.1348L36.7188-13.1348L36.7188-25.6348C29.9316-25.7324 24.4141-31.25 24.4141-38.1348C24.4141-44.9219 29.9316-50.4883 36.7188-50.5859L36.7188-56.3965C32.5684-56.4941 29.1504-59.9121 29.1504-64.1602C29.1504-69.5801 34.8633-73.4863 40.1855-71.0938C43.9941-77.0996 50.7324-80.6152 59.2773-80.6152L61.6699-80.6152L61.377-81.0059C59.1309-83.9844 55.5176-85.5957 50.7324-85.5957L22.998-85.5957C14.6973-85.5957 9.76562-80.6641 9.76562-72.3633L9.76562-26.3672C9.76562-18.0664 14.6973-13.1348 22.998-13.1348ZM44.043-58.0566L44.043-0.341797C44.043 9.22852 49.707 14.8926 59.2773 14.8926L99.707 14.8926C109.277 14.8926 114.941 9.22852 114.941-0.341797L114.941-58.0566C114.941-67.627 109.277-73.291 99.707-73.291L59.2773-73.291C49.707-73.291 44.043-67.627 44.043-58.0566ZM34.8633-64.209C34.8633-63.0371 35.7422-62.1582 37.0117-62.1582C37.207-63.4766 37.5-64.7461 37.8418-65.9668C36.7188-66.6504 34.8633-65.8691 34.8633-64.209ZM79.4434-38.0859C73.6816-38.0859 69.1406-42.627 69.1406-48.4375C69.1406-54.248 73.6816-58.8379 79.4434-58.8379C85.2539-58.7891 89.7949-54.248 89.8438-48.4375C89.8926-42.627 85.2539-38.0859 79.4434-38.0859ZM79.4922-45.8496C80.9082-45.8496 82.0801-47.0215 82.0801-48.4375C82.0801-49.9023 80.8594-51.0742 79.4922-51.0742C78.0762-51.0742 76.9043-49.9512 76.9043-48.4375C76.9043-47.0215 78.0762-45.8496 79.4922-45.8496ZM33.3496-38.1348C33.3496-36.2305 34.8145-34.668 36.7188-34.5703L36.7188-41.6504C34.8145-41.5527 33.3496-40.0391 33.3496-38.1348ZM79.4922 0.488281C70.752 0.488281 63.6719-6.5918 63.6719-15.332C63.6719-24.2188 70.752-31.2012 79.4922-31.1523C88.2324-31.1523 95.3125-24.2188 95.3125-15.332C95.3125-6.5918 88.2324 0.488281 79.4922 0.488281ZM79.4922-11.084C81.8848-11.084 83.8379-13.0371 83.8379-15.332C83.8379-17.8711 81.8848-19.7266 79.4922-19.7266C77.0996-19.7266 75.1465-17.8711 75.1465-15.332C75.1465-13.0371 77.0996-11.084 79.4922-11.084Z"/>
  </g>
  <g id="Heavy-S" transform="matrix(1 0 0 1 2575.65 696)">
   <path d="M22.0215-13.0371L37.1094-13.0371L37.1094-24.707C29.7363-24.2676 23.4375-30.0781 23.4375-37.5977C23.4375-45.0195 29.7852-50.9277 37.1094-50.4395L37.1094-56.3477C32.7637-55.9082 28.6621-59.4238 28.6621-64.0625C28.6621-69.9219 35.0586-73.7793 40.3809-70.8008C43.8965-76.4648 50.2441-79.7852 58.3496-79.7852L60.8398-79.7852L60.5957-80.127C58.5449-82.8613 55.2246-84.3262 50.7324-84.3262L22.0215-84.3262C14.2578-84.3262 9.76562-79.834 9.76562-72.0703L9.76562-25.3418C9.76562-17.5293 14.2578-13.0371 22.0215-13.0371ZM44.043-58.4961L44.043-0.830078C44.043 8.25195 49.2676 13.4766 58.3496 13.4766L98.0469 13.4766C107.129 13.4766 112.305 8.25195 112.305-0.830078L112.305-58.4961C112.305-67.627 107.129-72.8516 98.0469-72.8516L58.3496-72.8516C49.2676-72.8516 44.043-67.627 44.043-58.4961ZM34.082-64.1113C34.082-62.4023 35.8398-61.3281 37.3535-62.0605C37.5488-63.3301 37.793-64.5508 38.1348-65.7227C36.9141-67.2363 34.082-66.4062 34.082-64.1113ZM78.1738-38.9648C72.5586-38.9648 68.1152-43.3594 68.1152-49.0234C68.1152-54.6387 72.5586-59.082 78.1738-59.082C83.7891-59.0332 88.2324-54.6387 88.2812-49.0234C88.3301-43.3594 83.7891-38.9648 78.1738-38.9648ZM78.1738-46.0449C79.834-46.0449 81.1523-47.3633 81.1523-49.0234C81.1523-50.6836 79.7852-52.002 78.1738-52.002C76.5625-52.002 75.2441-50.7324 75.2441-49.0234C75.2441-47.3633 76.5625-46.0449 78.1738-46.0449ZM32.3242-37.5977C32.3242-35.0098 34.7656-33.1543 37.1094-33.7891L37.1094-41.4062C34.7656-41.9922 32.3242-40.2344 32.3242-37.5977ZM78.1738-0.244141C69.4336-0.244141 62.3047-7.32422 62.3047-16.1133C62.3047-25.0488 69.4336-32.0801 78.1738-32.0312C86.9629-32.0312 94.0918-25.0488 94.0918-16.1133C94.0918-7.32422 86.9629-0.244141 78.1738-0.244141ZM78.1738-11.3281C80.9082-11.3281 83.0566-13.5254 83.0566-16.1133C83.0566-18.9453 80.9082-21.0449 78.1738-21.0449C75.4883-21.0449 73.3398-18.9453 73.3398-16.1133C73.3398-13.5254 75.5371-11.3281 78.1738-11.3281Z"/>
  </g>
  <g id="Bold-S" transform="matrix(1 0 0 1 2280.41 696)">
   <path d="M20.9473-12.9395L37.5977-12.9395L37.5977-23.6816C29.541-22.6074 22.3633-28.8086 22.3633-37.0117C22.3633-45.1172 29.6387-51.3672 37.5977-50.2441L37.5977-56.2988C32.959-55.2246 28.1738-58.8867 28.1738-64.0137C28.1738-70.3125 35.3027-74.0723 40.5762-70.5078C43.8477-75.7812 49.6582-78.8086 57.2754-78.8086L59.9609-78.8086L59.7168-79.1504C57.959-81.6406 54.834-82.959 50.7812-82.959L20.9473-82.959C13.7695-82.959 9.76562-78.9062 9.76562-71.6797L9.76562-24.2188C9.76562-16.9434 13.7695-12.9395 20.9473-12.9395ZM44.0918-59.0332L44.0918-1.41602C44.0918 7.12891 48.7793 11.8652 57.2754 11.8652L96.1914 11.8652C104.688 11.8652 109.375 7.12891 109.375-1.41602L109.375-59.0332C109.375-67.5781 104.688-72.3145 96.1914-72.3145L57.2754-72.3145C48.7793-72.3145 44.0918-67.5781 44.0918-59.0332ZM33.252-64.0137C33.252-61.6699 35.9863-60.3516 37.7441-61.9141C37.8906-63.1836 38.0859-64.3555 38.4277-65.4785C37.1582-67.8711 33.252-66.9434 33.252-64.0137ZM76.709-39.8926C71.3379-39.8926 66.9922-44.1895 66.9922-49.6582C66.9922-55.0781 71.3379-59.4238 76.709-59.375C82.1289-59.3262 86.4258-55.0781 86.4746-49.6582C86.5723-44.1895 82.1289-39.8926 76.709-39.8926ZM76.7578-46.2402C78.6133-46.2402 80.127-47.7539 80.127-49.6582C80.127-51.5625 78.5645-53.0762 76.7578-53.0762C74.8535-53.0762 73.3398-51.6113 73.3398-49.6582C73.3398-47.7539 74.8535-46.2402 76.7578-46.2402ZM31.1523-37.0117C31.1523-33.5938 34.7656-31.4941 37.5977-32.959L37.5977-41.1133C34.7168-42.5293 31.1523-40.4297 31.1523-37.0117ZM76.7578-1.07422C67.9199-1.07422 60.7422-8.1543 60.7422-16.9922C60.7422-25.9766 67.9199-33.0566 76.7578-33.0078C85.5957-32.959 92.7246-25.9766 92.7246-16.9922C92.7246-8.1543 85.5957-1.07422 76.7578-1.07422ZM76.7578-11.6211C79.7852-11.6211 82.1777-14.0625 82.1777-16.9922C82.1777-20.166 79.7852-22.5098 76.7578-22.5098C73.6816-22.5098 71.2891-20.166 71.2891-16.9922C71.2891-14.0625 73.7305-11.6211 76.7578-11.6211Z"/>
  </g>
  <g id="Semibold-S" transform="matrix(1 0 0 1 1984.7 696)">
   <path d="M20.2148-12.8906L37.8906-12.8906L37.8906-22.998C29.3945-21.4844 21.6309-27.9297 21.6309-36.5723C21.6309-45.2148 29.541-51.709 37.8906-50.1465L37.8906-56.25C33.1055-54.7852 27.7832-58.4961 27.7832-63.916C27.7832-70.5566 35.4492-74.3164 40.6738-70.3125C43.75-75.3418 49.2676-78.1738 56.5918-78.1738L59.3262-78.1738L59.1309-78.5156C57.5195-80.8105 54.6387-81.9824 50.7812-81.9824L20.2148-81.9824C13.4277-81.9824 9.76562-78.2715 9.76562-71.4844L9.76562-23.3887C9.76562-16.5527 13.4277-12.8906 20.2148-12.8906ZM44.0918-59.375L44.0918-1.80664C44.0918 6.39648 48.4375 10.7422 56.5918 10.7422L94.9219 10.7422C103.027 10.7422 107.373 6.39648 107.373-1.80664L107.373-59.375C107.373-67.5781 103.027-71.9727 94.9219-71.9727L56.5918-71.9727C48.4375-71.9727 44.0918-67.5781 44.0918-59.375ZM32.666-63.9648C32.666-61.1328 36.084-59.7168 37.9883-61.8652C38.1348-63.0371 38.3301-64.209 38.623-65.2832C37.3047-68.3105 32.666-67.334 32.666-63.9648ZM75.7324-40.5762C70.459-40.5762 66.2109-44.7754 66.2109-50.0977C66.2109-55.4199 70.459-59.6191 75.7324-59.5703C81.0059-59.5215 85.2051-55.4199 85.2539-50.0977C85.3516-44.7754 81.0059-40.5762 75.7324-40.5762ZM75.7324-46.3867C77.7832-46.3867 79.4434-48.0469 79.4434-50.0977C79.4434-52.1484 77.7344-53.8086 75.7324-53.8086C73.6816-53.8086 72.0703-52.2461 72.0703-50.0977C72.0703-48.0469 73.6816-46.3867 75.7324-46.3867ZM30.3711-36.6211C30.3711-32.666 34.7168-30.3223 37.8906-32.373L37.8906-40.8691C34.668-42.8711 30.3711-40.5762 30.3711-36.6211ZM75.7324-1.61133C66.8945-1.61133 59.7168-8.74023 59.7168-17.627C59.7168-26.6113 66.8945-33.7402 75.7324-33.6914C84.6191-33.6426 91.7969-26.6113 91.7969-17.627C91.7969-8.74023 84.6191-1.61133 75.7324-1.61133ZM75.7324-11.8164C79.0527-11.8164 81.5918-14.4531 81.5918-17.627C81.5918-20.9961 79.0527-23.5352 75.7324-23.5352C72.4609-23.5352 69.9219-20.9961 69.9219-17.627C69.9219-14.4531 72.5098-11.8164 75.7324-11.8164Z"/>
  </g>
  <g id="Medium-S" transform="matrix(1 0 0 1 1688.74 696)">
   <path d="M19.6777-12.8418L38.1348-12.8418L38.1348-22.4609C29.2969-20.6543 21.0938-27.2461 21.0938-36.2793C21.0938-45.2637 29.4434-51.9531 38.1348-50.0488L38.1348-56.2012C33.252-54.4434 27.5391-58.2031 27.5391-63.8672C27.5391-70.752 35.5957-74.4629 40.7715-70.166C43.7012-74.9512 48.9746-77.6855 56.0547-77.6855L58.8379-77.6855L58.6914-77.9785C57.1777-80.1758 54.4434-81.25 50.7812-81.25L19.6777-81.25C13.1836-81.25 9.76562-77.832 9.76562-71.2891L9.76562-22.8027C9.76562-16.2598 13.1836-12.8418 19.6777-12.8418ZM44.1406-59.668L44.1406-2.09961C44.1406 5.81055 48.1934 9.91211 56.0547 9.91211L93.9453 9.91211C101.758 9.91211 105.859 5.81055 105.859-2.09961L105.859-59.668C105.859-67.5781 101.807-71.6797 93.9453-71.6797L56.0547-71.6797C48.1934-71.6797 44.1406-67.5781 44.1406-59.668ZM32.1777-63.8672C32.1777-60.7422 36.1328-59.1797 38.2324-61.7676C38.3301-62.9883 38.4766-64.0625 38.7695-65.1367C37.4023-68.6523 32.1777-67.6758 32.1777-63.8672ZM75-41.0645C69.7754-41.0645 65.625-45.166 65.625-50.3906C65.625-55.6152 69.8242-59.7656 75-59.7168C80.1758-59.668 84.2773-55.6152 84.3262-50.3906C84.4238-45.166 80.1758-41.0645 75-41.0645ZM75-46.4844C77.1484-46.4844 78.9062-48.2422 78.9062-50.3906C78.9062-52.5879 77.0996-54.3457 75-54.3457C72.8027-54.3457 71.0449-52.6855 71.0449-50.3906C71.0449-48.2422 72.8027-46.4844 75-46.4844ZM29.7852-36.3281C29.7852-31.9336 34.7168-29.4434 38.1348-31.9336L38.1348-40.7227C34.6191-43.1152 29.7852-40.6738 29.7852-36.3281ZM75-2.05078C66.0645-2.05078 58.8867-9.17969 58.8867-18.1152C58.8867-27.0996 66.0645-34.2285 75-34.1797C83.8867-34.1309 91.0645-27.0996 91.0645-18.1152C91.0645-9.17969 83.8867-2.05078 75-2.05078ZM75-11.9629C78.4668-11.9629 81.1035-14.7461 81.1035-18.1152C81.1035-21.6309 78.4668-24.3164 75-24.3164C71.5332-24.3164 68.8477-21.6309 68.8477-18.1152C68.8477-14.7461 71.582-11.9629 75-11.9629Z"/>
  </g>
  <g id="Regular-S" transform="matrix(1 0 0 1 1393.03 696)">
   <path d="M18.9453-12.793L38.4277-12.793L38.4277-21.7773C29.1992-19.5312 20.3613-26.3672 20.3613-35.8887C20.3613-45.3613 29.3457-52.2461 38.4277-49.9023L38.4277-56.2012C33.3984-53.9551 27.1484-57.8613 27.1484-63.8184C27.1484-70.9961 35.7422-74.707 40.918-69.9707C43.6523-74.5117 48.584-77.0508 55.3223-77.0508L58.252-77.0508L58.1055-77.3438C56.7383-79.2969 54.1992-80.2734 50.7812-80.2734L18.9453-80.2734C12.8418-80.2734 9.76562-77.1973 9.76562-71.0449L9.76562-22.0215C9.76562-15.8691 12.8418-12.793 18.9453-12.793ZM44.1406-60.0098L44.1406-2.49023C44.1406 5.07812 47.8516 8.83789 55.3223 8.83789L92.6758 8.83789C100.146 8.83789 103.857 5.07812 103.857-2.49023L103.857-60.0098C103.857-67.5781 100.146-71.3379 92.6758-71.3379L55.3223-71.3379C47.8516-71.3379 44.1406-67.5781 44.1406-60.0098ZM31.6406-63.8184C31.6406-60.2539 36.2305-58.5449 38.4766-61.7188C38.5742-62.8418 38.7207-63.916 39.0137-64.9902C37.5488-69.0918 31.6406-68.0664 31.6406-63.8184ZM73.9746-41.6992C68.9453-41.6992 64.8926-45.752 64.8926-50.8301C64.8926-55.957 68.9453-59.9609 73.9746-59.9121C79.0527-59.8633 83.0566-55.9082 83.1055-50.8301C83.2031-45.752 79.0527-41.6992 73.9746-41.6992ZM73.9746-46.6309C76.3672-46.6309 78.2227-48.5352 78.2227-50.8301C78.2227-53.1738 76.3184-55.0293 73.9746-55.0293C71.6309-55.0293 69.7754-53.2715 69.7754-50.8301C69.7754-48.5352 71.6309-46.6309 73.9746-46.6309ZM28.9551-35.9375C28.9551-30.957 34.668-28.3203 38.4277-31.3477L38.4277-40.5273C34.5703-43.5059 28.9551-40.8203 28.9551-35.9375ZM73.9746-2.58789C65.0879-2.58789 57.8613-9.7168 57.8613-18.7012C57.8613-27.7344 65.0879-34.9121 73.9746-34.8633C82.9102-34.8145 90.1367-27.7344 90.1367-18.7012C90.1367-9.7168 82.9102-2.58789 73.9746-2.58789ZM73.9746-12.1582C77.6855-12.1582 80.5176-15.1367 80.5176-18.7012C80.5176-22.4609 77.6855-25.3418 73.9746-25.3418C70.2637-25.3418 67.4805-22.4609 67.4805-18.7012C67.4805-15.1367 70.3613-12.1582 73.9746-12.1582Z"/>
  </g>
  <g id="Light-S" transform="matrix(1 0 0 1 1098.42 696)">
   <path d="M18.2617-13.2812L37.0605-13.2812L37.0605-22.0215C28.2227-20.2637 19.9219-26.9531 19.9219-36.0352C19.9219-45.0684 28.3203-51.8066 37.0605-50L37.0605-56.0547C32.1289-54.3457 26.709-58.1055 26.709-63.5254C26.709-70.5566 35.2051-73.9746 40.0879-69.2383C42.5781-72.8027 46.6797-74.7559 52.2461-74.7559L57.5195-74.7559L57.4219-75.5859C56.543-78.2715 53.9062-79.834 50.2441-79.834L18.2617-79.834C12.7441-79.834 9.76562-76.8555 9.76562-71.2891L9.76562-21.8262C9.76562-16.2598 12.7441-13.2812 18.2617-13.2812ZM41.8945-59.4727L41.8945-2.00195C41.8945 4.93164 45.3613 8.44727 52.2461 8.44727L89.3066 8.44727C96.1914 8.44727 99.6582 4.93164 99.6582-2.00195L99.6582-59.4727C99.6582-66.4062 96.1914-69.9219 89.3066-69.9219L52.2461-69.9219C45.3613-69.9219 41.8945-66.4062 41.8945-59.4727ZM30.3711-63.5254C30.3711-60.0098 34.5703-58.0566 37.0605-60.4492C37.1582-62.4023 37.5-64.0625 38.2812-65.4297C36.2793-69.3848 30.3711-67.9199 30.3711-63.5254ZM70.752-41.5527C65.8691-41.5527 61.9629-45.4102 61.9629-50.3418C61.9629-55.2246 65.918-59.1309 70.752-59.082C75.6348-59.0332 79.541-55.2246 79.5898-50.3418C79.6387-45.459 75.6348-41.5527 70.752-41.5527ZM70.752-45.5078C73.4375-45.5078 75.6348-47.7051 75.6348-50.3418C75.6348-53.0273 73.3887-55.1758 70.752-55.1758C68.0664-55.1758 65.918-53.125 65.918-50.3418C65.918-47.7051 68.0664-45.5078 70.752-45.5078ZM27.9785-36.084C27.9785-31.3477 33.0566-28.4668 37.0605-30.7129L37.0605-41.4062C33.0566-43.6523 27.9785-40.7715 27.9785-36.084ZM70.752-2.34375C61.8652-2.34375 54.6875-9.47266 54.6875-18.4082C54.6875-27.3926 61.8652-34.5215 70.752-34.4727C79.6875-34.4727 86.8652-27.3926 86.8652-18.4082C86.8652-9.47266 79.6875-2.34375 70.752-2.34375ZM70.752-11.377C74.7559-11.377 77.832-14.5508 77.832-18.4082C77.832-22.4609 74.7559-25.5371 70.752-25.5371C66.7969-25.5371 63.7207-22.4609 63.7207-18.4082C63.7207-14.5508 66.8945-11.377 70.752-11.377Z"/>
  </g>
  <g id="Thin-S" transform="matrix(1 0 0 1 804.469 696)">
   <path d="M17.3828-13.9648L35.2539-13.9648L35.2539-22.3633C26.9531-21.2402 19.4336-27.6855 19.4336-36.2305C19.4336-44.6777 27.002-51.2695 35.2539-50.0977L35.2539-55.9082C30.5176-54.834 26.123-58.3984 26.123-63.1836C26.123-69.9707 34.4727-73.0957 38.9648-68.3594C41.1133-70.5566 44.1895-71.7285 48.1934-71.7285L56.6406-71.7285L56.5918-73.3398C56.25-76.9531 53.4668-79.248 49.5117-79.248L17.3828-79.248C12.6465-79.248 9.76562-76.3672 9.76562-71.6309L9.76562-21.582C9.76562-16.8457 12.6465-13.9648 17.3828-13.9648ZM38.916-58.7402L38.916-1.36719C38.916 4.73633 42.0898 7.95898 48.1934 7.95898L84.8633 7.95898C90.9668 7.95898 94.1406 4.73633 94.1406-1.36719L94.1406-58.7402C94.1406-64.8926 90.9668-68.0664 84.8633-68.0664L48.1934-68.0664C42.041-68.0664 38.916-64.8926 38.916-58.7402ZM28.7109-63.1836C28.7109-59.7168 32.373-57.373 35.2539-58.8379C35.2539-61.8164 35.8887-64.209 37.4023-66.0645C34.5215-69.7266 28.7109-67.7246 28.7109-63.1836ZM66.5039-41.3086C61.8164-41.3086 58.1055-45.0195 58.1055-49.707C58.1055-54.3457 61.8652-58.0566 66.5039-58.0078C71.1914-57.959 74.9023-54.2969 74.9023-49.707C74.9512-45.0195 71.1426-41.3086 66.5039-41.3086ZM66.5039-43.9941C69.6289-43.9941 72.168-46.582 72.168-49.707C72.168-52.7832 69.5801-55.3223 66.5039-55.3223C63.3301-55.3223 60.8398-52.8809 60.8398-49.707C60.8398-46.582 63.3789-43.9941 66.5039-43.9941ZM26.709-36.2305C26.709-31.8359 30.9082-28.6133 35.2539-29.9316L35.2539-42.5781C31.0059-43.7988 26.709-40.7227 26.709-36.2305ZM66.5039-2.00195C57.666-2.00195 50.5371-9.13086 50.5371-18.0176C50.5371-26.9531 57.666-34.0332 66.5039-33.9844C75.3906-33.9844 82.4707-26.9531 82.4707-18.0176C82.4707-9.13086 75.3906-2.00195 66.5039-2.00195ZM66.5039-10.3027C70.8496-10.3027 74.2188-13.7207 74.2188-18.0176C74.2188-22.4121 70.8496-25.7812 66.5039-25.7812C62.207-25.7812 58.7891-22.4121 58.7891-18.0176C58.7891-13.7207 62.3047-10.3027 66.5039-10.3027Z"/>
  </g>
  <g id="Ultralight-S" transform="matrix(1 0 0 1 509.198 696)">
   <path d="M16.8945-14.3066L34.2773-14.3066L34.2773-22.5098C26.3184-21.7773 19.1406-28.0762 19.1406-36.3281C19.1406-44.4824 26.2695-50.9277 34.2773-50.1465L34.2773-55.8105C29.6875-55.0781 25.7812-58.5449 25.7812-62.9883C25.7812-69.6289 34.082-72.6074 38.4277-67.8711C40.3809-69.3848 42.8711-70.166 46.0938-70.166L56.1523-70.166L56.1523-72.168C56.1035-76.2207 53.2715-78.9062 49.1211-78.9062L16.8945-78.9062C12.5977-78.9062 9.76562-76.123 9.76562-71.8262L9.76562-21.4355C9.76562-17.1387 12.5977-14.3066 16.8945-14.3066ZM27.8809-62.9883C27.8809-59.5703 31.25-57.0312 34.2773-58.0078C34.3262-61.4746 35.0586-64.3066 36.9141-66.4062C33.6426-69.9219 27.8809-67.627 27.8809-62.9883ZM37.3535-58.3496L37.3535-1.07422C37.3535 4.63867 40.3809 7.71484 46.0938 7.71484L82.5684 7.71484C88.2812 7.71484 91.2598 4.63867 91.2598-1.07422L91.2598-58.3496C91.2598-64.1113 88.3301-67.0898 82.5684-67.0898L46.0938-67.0898C40.332-67.0898 37.3535-64.1113 37.3535-58.3496ZM64.3066-41.2109C59.7656-41.2109 56.1035-44.7754 56.1035-49.3652C56.1035-53.8574 59.8145-57.5195 64.3066-57.4707C68.8965-57.4219 72.5098-53.8086 72.5098-49.3652C72.5098-44.8242 68.8477-41.2109 64.3066-41.2109ZM64.3066-43.2617C67.6758-43.2617 70.4102-45.9961 70.4102-49.3652C70.4102-52.6855 67.627-55.4199 64.3066-55.4199C60.8887-55.4199 58.2031-52.7832 58.2031-49.3652C58.2031-45.9961 60.9375-43.2617 64.3066-43.2617ZM26.0254-36.377C26.0254-32.1289 29.7852-28.7598 34.2773-29.4922L34.2773-43.1641C29.9316-43.9453 26.0254-40.6738 26.0254-36.377ZM64.3066-1.85547C55.4688-1.85547 48.3887-8.93555 48.3887-17.8223C48.3887-26.709 55.4688-33.7891 64.3066-33.7402C73.1445-33.7402 80.2734-26.709 80.2734-17.8223C80.2734-8.93555 73.1445-1.85547 64.3066-1.85547ZM64.3066-9.76562C68.7988-9.76562 72.4121-13.3301 72.4121-17.8223C72.4121-22.4121 68.7988-25.8789 64.3066-25.8789C59.8145-25.8789 56.25-22.4121 56.25-17.8223C56.25-13.3301 59.9121-9.76562 64.3066-9.76562Z"/>
  </g>
 </g>
</svg>
