<?xml version="1.0" encoding="UTF-8"?>
<!--Generator: Apple Native CoreSVG 149-->
<!DOCTYPE svg
PUBLIC "-//W3C//DTD SVG 1.1//EN"
       "http://www.w3.org/Graphics/SVG/1.1/DTD/svg11.dtd">
<svg version="1.1" xmlns="http://www.w3.org/2000/svg" xmlns:xlink="http://www.w3.org/1999/xlink" width="3300" height="2200">
 <!--glyph: "uni10074F.medium", point size: 100.000000, font version: "Version 16.0d18e1", template writer version: "8"-->
 <g id="Notes">
  <rect height="2200" id="artboard" style="fill:white;opacity:1" width="3300" x="0" y="0"/>
  <line id="" style="fill:none;stroke:black;opacity:1;stroke-width:0.5;" x1="263" x2="3036" y1="292" y2="292"/>
  <text style="stroke:none;fill:black;font-family:-apple-system,&quot;SF Pro Display&quot;,&quot;SF Pro Text&quot;,Helvetica,sans-serif;font-weight:bold;" transform="matrix(1 0 0 1 263 322)">Weight/Scale Variations</text>
  <text style="stroke:none;fill:black;font-family:-apple-system,&quot;SF Pro Display&quot;,&quot;SF Pro Text&quot;,Helvetica,sans-serif;text-anchor:middle;" transform="matrix(1 0 0 1 559.711 322)">Ultralight</text>
  <text style="stroke:none;fill:black;font-family:-apple-system,&quot;SF Pro Display&quot;,&quot;SF Pro Text&quot;,Helvetica,sans-serif;text-anchor:middle;" transform="matrix(1 0 0 1 856.422 322)">Thin</text>
  <text style="stroke:none;fill:black;font-family:-apple-system,&quot;SF Pro Display&quot;,&quot;SF Pro Text&quot;,Helvetica,sans-serif;text-anchor:middle;" transform="matrix(1 0 0 1 1153.13 322)">Light</text>
  <text style="stroke:none;fill:black;font-family:-apple-system,&quot;SF Pro Display&quot;,&quot;SF Pro Text&quot;,Helvetica,sans-serif;text-anchor:middle;" transform="matrix(1 0 0 1 1449.84 322)">Regular</text>
  <text style="stroke:none;fill:black;font-family:-apple-system,&quot;SF Pro Display&quot;,&quot;SF Pro Text&quot;,Helvetica,sans-serif;text-anchor:middle;" transform="matrix(1 0 0 1 1746.56 322)">Medium</text>
  <text style="stroke:none;fill:black;font-family:-apple-system,&quot;SF Pro Display&quot;,&quot;SF Pro Text&quot;,Helvetica,sans-serif;text-anchor:middle;" transform="matrix(1 0 0 1 2043.27 322)">Semibold</text>
  <text style="stroke:none;fill:black;font-family:-apple-system,&quot;SF Pro Display&quot;,&quot;SF Pro Text&quot;,Helvetica,sans-serif;text-anchor:middle;" transform="matrix(1 0 0 1 2339.98 322)">Bold</text>
  <text style="stroke:none;fill:black;font-family:-apple-system,&quot;SF Pro Display&quot;,&quot;SF Pro Text&quot;,Helvetica,sans-serif;text-anchor:middle;" transform="matrix(1 0 0 1 2636.69 322)">Heavy</text>
  <text style="stroke:none;fill:black;font-family:-apple-system,&quot;SF Pro Display&quot;,&quot;SF Pro Text&quot;,Helvetica,sans-serif;text-anchor:middle;" transform="matrix(1 0 0 1 2933.4 322)">Black</text>
  <line id="" style="fill:none;stroke:black;opacity:1;stroke-width:0.5;" x1="263" x2="3036" y1="1903" y2="1903"/>
  <g id="" transform="matrix(1 0 0 1 263 1933)">
   <path d="M9.24805 0.830078C13.5547 0.830078 17.1387-2.74414 17.1387-7.05078C17.1387-11.3574 13.5449-14.9316 9.23828-14.9316C4.94141-14.9316 1.36719-11.3574 1.36719-7.05078C1.36719-2.74414 4.95117 0.830078 9.24805 0.830078ZM9.24805-0.654297C5.70312-0.654297 2.87109-3.49609 2.87109-7.05078C2.87109-10.6055 5.69336-13.4473 9.23828-13.4473C12.793-13.4473 15.6348-10.6055 15.6445-7.05078C15.6543-3.49609 12.8027-0.654297 9.24805-0.654297ZM6.39648-6.31836L8.50586-6.31836L8.50586-4.19922C8.50586-3.75977 8.79883-3.45703 9.22852-3.45703C9.67773-3.45703 9.9707-3.75977 9.9707-4.19922L9.9707-6.31836L12.0996-6.31836C12.5391-6.31836 12.8418-6.61133 12.8418-7.04102C12.8418-7.48047 12.5391-7.7832 12.0996-7.7832L9.9707-7.7832L9.9707-9.89258C9.9707-10.3418 9.67773-10.6445 9.22852-10.6445C8.79883-10.6445 8.50586-10.3418 8.50586-9.89258L8.50586-7.7832L6.39648-7.7832C5.94727-7.7832 5.64453-7.48047 5.64453-7.04102C5.64453-6.61133 5.94727-6.31836 6.39648-6.31836Z"/>
  </g>
  <g id="" transform="matrix(1 0 0 1 281.506 1933)">
   <path d="M11.709 2.91016C17.1582 2.91016 21.6699-1.61133 21.6699-7.05078C21.6699-12.5 17.1484-17.0117 11.6992-17.0117C6.25977-17.0117 1.74805-12.5 1.74805-7.05078C1.74805-1.61133 6.26953 2.91016 11.709 2.91016ZM11.709 1.25C7.09961 1.25 3.41797-2.44141 3.41797-7.05078C3.41797-11.6602 7.08984-15.3516 11.6992-15.3516C16.3086-15.3516 20-11.6602 20.0098-7.05078C20.0195-2.44141 16.3184 1.25 11.709 1.25ZM7.98828-6.23047L10.8789-6.23047L10.8789-3.32031C10.8789-2.83203 11.2109-2.5 11.6895-2.5C12.1777-2.5 12.5195-2.83203 12.5195-3.32031L12.5195-6.23047L15.4297-6.23047C15.918-6.23047 16.25-6.5625 16.25-7.04102C16.25-7.5293 15.918-7.87109 15.4297-7.87109L12.5195-7.87109L12.5195-10.7617C12.5195-11.2695 12.1777-11.6016 11.6895-11.6016C11.2109-11.6016 10.8789-11.2598 10.8789-10.7617L10.8789-7.87109L7.98828-7.87109C7.48047-7.87109 7.14844-7.5293 7.14844-7.04102C7.14844-6.5625 7.49023-6.23047 7.98828-6.23047Z"/>
  </g>
  <g id="" transform="matrix(1 0 0 1 304.924 1933)">
   <path d="M14.9707 5.66406C21.9336 5.66406 27.6953-0.0976562 27.6953-7.05078C27.6953-14.0137 21.9238-19.7754 14.9609-19.7754C8.00781-19.7754 2.25586-14.0137 2.25586-7.05078C2.25586-0.0976562 8.01758 5.66406 14.9707 5.66406ZM14.9707 3.84766C8.93555 3.84766 4.08203-1.01562 4.08203-7.05078C4.08203-13.0957 8.92578-17.9492 14.9609-17.9492C21.0059-17.9492 25.8594-13.0957 25.8691-7.05078C25.8789-1.01562 21.0156 3.84766 14.9707 3.84766ZM10.0586-6.14258L14.0625-6.14258L14.0625-2.12891C14.0625-1.5918 14.4336-1.2207 14.9512-1.2207C15.4883-1.2207 15.8594-1.5918 15.8594-2.12891L15.8594-6.14258L19.8828-6.14258C20.4102-6.14258 20.791-6.51367 20.791-7.03125C20.791-7.56836 20.4199-7.94922 19.8828-7.94922L15.8594-7.94922L15.8594-11.9531C15.8594-12.5098 15.4883-12.8809 14.9512-12.8809C14.4336-12.8809 14.0625-12.5 14.0625-11.9531L14.0625-7.94922L10.0586-7.94922C9.50195-7.94922 9.13086-7.56836 9.13086-7.03125C9.13086-6.51367 9.51172-6.14258 10.0586-6.14258Z"/>
  </g>
  <text style="stroke:none;fill:black;font-family:-apple-system,&quot;SF Pro Display&quot;,&quot;SF Pro Text&quot;,Helvetica,sans-serif;font-weight:bold;" transform="matrix(1 0 0 1 263 1953)">Design Variations</text>
  <text style="stroke:none;fill:black;font-family:-apple-system,&quot;SF Pro Display&quot;,&quot;SF Pro Text&quot;,Helvetica,sans-serif;" transform="matrix(1 0 0 1 263 1971)">Symbols are supported in up to nine weights and three scales.</text>
  <text style="stroke:none;fill:black;font-family:-apple-system,&quot;SF Pro Display&quot;,&quot;SF Pro Text&quot;,Helvetica,sans-serif;" transform="matrix(1 0 0 1 263 1989)">For optimal layout with text and other symbols, vertically align</text>
  <text style="stroke:none;fill:black;font-family:-apple-system,&quot;SF Pro Display&quot;,&quot;SF Pro Text&quot;,Helvetica,sans-serif;" transform="matrix(1 0 0 1 263 2007)">symbols with the adjacent text.</text>
  <line id="" style="fill:none;stroke:#00AEEF;stroke-width:0.5;opacity:1.0;" x1="776" x2="776" y1="1919" y2="1933"/>
  <g id="" transform="matrix(1 0 0 1 776 1933)">
   <path d="M3.31055 0.126953C3.82812 0.126953 4.08203-0.0683594 4.26758-0.605469L5.52734-4.0625L11.2891-4.0625L12.5488-0.605469C12.7344-0.0683594 12.9883 0.126953 13.4961 0.126953C14.0137 0.126953 14.3457-0.185547 14.3457-0.673828C14.3457-0.839844 14.3164-0.986328 14.2383-1.20117L9.6582-13.3887C9.43359-13.9941 9.0332-14.2871 8.4082-14.2871C7.80273-14.2871 7.39258-13.9941 7.17773-13.3984L2.59766-1.19141C2.51953-0.976562 2.49023-0.830078 2.49023-0.664062C2.49023-0.175781 2.80273 0.126953 3.31055 0.126953ZM6.00586-5.53711L8.37891-12.1094L8.42773-12.1094L10.8008-5.53711Z"/>
  </g>
  <line id="" style="fill:none;stroke:#00AEEF;stroke-width:0.5;opacity:1.0;" x1="792.836" x2="792.836" y1="1919" y2="1933"/>
  <text style="stroke:none;fill:black;font-family:-apple-system,&quot;SF Pro Display&quot;,&quot;SF Pro Text&quot;,Helvetica,sans-serif;font-weight:bold;" transform="matrix(1 0 0 1 776 1953)">Margins</text>
  <text style="stroke:none;fill:black;font-family:-apple-system,&quot;SF Pro Display&quot;,&quot;SF Pro Text&quot;,Helvetica,sans-serif;" transform="matrix(1 0 0 1 776 1971)">Leading and trailing margins on the left and right side of each symbol</text>
  <text style="stroke:none;fill:black;font-family:-apple-system,&quot;SF Pro Display&quot;,&quot;SF Pro Text&quot;,Helvetica,sans-serif;" transform="matrix(1 0 0 1 776 1989)">can be adjusted by modifying the x-location of the margin guidelines.</text>
  <text style="stroke:none;fill:black;font-family:-apple-system,&quot;SF Pro Display&quot;,&quot;SF Pro Text&quot;,Helvetica,sans-serif;" transform="matrix(1 0 0 1 776 2007)">Modifications are automatically applied proportionally to all</text>
  <text style="stroke:none;fill:black;font-family:-apple-system,&quot;SF Pro Display&quot;,&quot;SF Pro Text&quot;,Helvetica,sans-serif;" transform="matrix(1 0 0 1 776 2025)">scales and weights.</text>
  <g id="" transform="matrix(1 0 0 1 1289 1933)">
   <path d="M2.8418 1.86523L4.54102 3.57422C5.40039 4.44336 6.38672 4.38477 7.31445 3.35938L17.4902-7.85156C17.7539-7.76367 18.0273-7.7832 18.3398-7.8418L19.4043-8.03711L20.0684-7.36328L20.0293-6.80664C19.9902-6.30859 20.1172-5.92773 20.6055-5.44922L21.3672-4.70703C21.8457-4.22852 22.4609-4.19922 22.9297-4.66797L25.8398-7.58789C26.3086-8.05664 26.2891-8.65234 25.8105-9.13086L25.0391-9.89258C24.5605-10.3711 24.1895-10.5273 23.7109-10.4883L23.1348-10.4395L22.4902-11.0742L22.7344-12.1973C22.8613-12.7637 22.7051-13.2031 22.1191-13.7891L19.9219-15.9766C16.582-19.2969 12.1484-19.2188 9.25781-16.3281C8.83789-15.918 8.80859-15.3418 9.04297-14.9512C9.27734-14.5898 9.73633-14.3555 10.3809-14.5215C11.8457-14.8633 13.3691-14.9219 14.7949-13.9844L14.209-12.5293C14.0137-12.0508 13.9844-11.6504 14.1113-11.2891L3.04688-0.898438C2.06055 0.0195312 1.98242 0.996094 2.8418 1.86523ZM10.752-15.957C13.1836-17.7344 16.4746-17.4316 18.7012-15.2051L21.1328-12.793C21.3672-12.5586 21.4062-12.373 21.3379-12.0312L21.0156-10.5469L22.5195-9.0625L23.5059-9.12109C23.7598-9.13086 23.8379-9.11133 24.0332-8.91602L24.6094-8.33984L22.168-5.89844L21.5918-6.47461C21.3965-6.66992 21.3672-6.74805 21.377-7.01172L21.4453-7.98828L19.9512-9.47266L18.4277-9.21875C18.1055-9.15039 17.959-9.17969 17.7148-9.41406L15.7129-11.416C15.459-11.6504 15.4297-11.8164 15.5859-12.1875L16.4648-14.2773C14.9023-15.7324 12.8711-16.3574 10.8398-15.7617C10.6836-15.7227 10.625-15.8496 10.752-15.957ZM5.27344 2.30469L4.10156 1.14258C3.63281 0.683594 3.74023 0.341797 4.14062-0.0195312L14.9512-10.1953L16.416-8.71094L6.42578 2.27539C6.07422 2.67578 5.74219 2.77344 5.27344 2.30469Z"/>
  </g>
  <text style="stroke:none;fill:black;font-family:-apple-system,&quot;SF Pro Display&quot;,&quot;SF Pro Text&quot;,Helvetica,sans-serif;font-weight:bold;" transform="matrix(1 0 0 1 1289 1953)">Exporting</text>
  <text style="stroke:none;fill:black;font-family:-apple-system,&quot;SF Pro Display&quot;,&quot;SF Pro Text&quot;,Helvetica,sans-serif;" transform="matrix(1 0 0 1 1289 1971)">Symbols should be outlined when exporting to ensure the</text>
  <text style="stroke:none;fill:black;font-family:-apple-system,&quot;SF Pro Display&quot;,&quot;SF Pro Text&quot;,Helvetica,sans-serif;" transform="matrix(1 0 0 1 1289 1989)">design is preserved when submitting to Xcode.</text>
  <text id="template-version" style="stroke:none;fill:black;font-family:-apple-system,&quot;SF Pro Display&quot;,&quot;SF Pro Text&quot;,Helvetica,sans-serif;text-anchor:end;" transform="matrix(1 0 0 1 3036 1933)">Template v.2.0</text>
  <text style="stroke:none;fill:black;font-family:-apple-system,&quot;SF Pro Display&quot;,&quot;SF Pro Text&quot;,Helvetica,sans-serif;text-anchor:end;" transform="matrix(1 0 0 1 3036 1951)">Requires Xcode 12 or greater</text>
  <text style="stroke:none;fill:black;font-family:-apple-system,&quot;SF Pro Display&quot;,&quot;SF Pro Text&quot;,Helvetica,sans-serif;text-anchor:end;" transform="matrix(1 0 0 1 3036 1969)">Generated from hifispeaker.fill</text>
  <text style="stroke:none;fill:black;font-family:-apple-system,&quot;SF Pro Display&quot;,&quot;SF Pro Text&quot;,Helvetica,sans-serif;text-anchor:end;" transform="matrix(1 0 0 1 3036 1987)">Typeset at 100 points</text>
  <text style="stroke:none;fill:black;font-family:-apple-system,&quot;SF Pro Display&quot;,&quot;SF Pro Text&quot;,Helvetica,sans-serif;" transform="matrix(1 0 0 1 263 726)">Small</text>
  <text style="stroke:none;fill:black;font-family:-apple-system,&quot;SF Pro Display&quot;,&quot;SF Pro Text&quot;,Helvetica,sans-serif;" transform="matrix(1 0 0 1 263 1156)">Medium</text>
  <text style="stroke:none;fill:black;font-family:-apple-system,&quot;SF Pro Display&quot;,&quot;SF Pro Text&quot;,Helvetica,sans-serif;" transform="matrix(1 0 0 1 263 1586)">Large</text>
 </g>
 <g id="Guides">
  <g id="H-reference" style="fill:#27AAE1;stroke:none;" transform="matrix(1 0 0 1 339 696)">
   <path d="M0.976562 0L3.66211 0L12.9883-24.4629L45.752-24.4629L55.127 0L57.7637 0L30.6152-70.459L28.125-70.459ZM29.3457-67.1387L29.4434-67.1387L44.873-26.709L13.8672-26.709Z"/>
  </g>
  <line id="Baseline-S" style="fill:none;stroke:#27AAE1;opacity:1;stroke-width:0.5;" x1="263" x2="3036" y1="696" y2="696"/>
  <line id="Capline-S" style="fill:none;stroke:#27AAE1;opacity:1;stroke-width:0.5;" x1="263" x2="3036" y1="625.541" y2="625.541"/>
  <g id="H-reference" style="fill:#27AAE1;stroke:none;" transform="matrix(1 0 0 1 339 1126)">
   <path d="M0.976562 0L3.66211 0L12.9883-24.4629L45.752-24.4629L55.127 0L57.7637 0L30.6152-70.459L28.125-70.459ZM29.3457-67.1387L29.4434-67.1387L44.873-26.709L13.8672-26.709Z"/>
  </g>
  <line id="Baseline-M" style="fill:none;stroke:#27AAE1;opacity:1;stroke-width:0.5;" x1="263" x2="3036" y1="1126" y2="1126"/>
  <line id="Capline-M" style="fill:none;stroke:#27AAE1;opacity:1;stroke-width:0.5;" x1="263" x2="3036" y1="1055.54" y2="1055.54"/>
  <g id="H-reference" style="fill:#27AAE1;stroke:none;" transform="matrix(1 0 0 1 339 1556)">
   <path d="M0.976562 0L3.66211 0L12.9883-24.4629L45.752-24.4629L55.127 0L57.7637 0L30.6152-70.459L28.125-70.459ZM29.3457-67.1387L29.4434-67.1387L44.873-26.709L13.8672-26.709Z"/>
  </g>
  <line id="Baseline-L" style="fill:none;stroke:#27AAE1;opacity:1;stroke-width:0.5;" x1="263" x2="3036" y1="1556" y2="1556"/>
  <line id="Capline-L" style="fill:none;stroke:#27AAE1;opacity:1;stroke-width:0.5;" x1="263" x2="3036" y1="1485.54" y2="1485.54"/>
  <line id="left-margin" style="fill:none;stroke:#00AEEF;stroke-width:0.5;opacity:1.0;" x1="1399.97" x2="1399.97" y1="1030.79" y2="1150.12"/>
  <line id="right-margin" style="fill:none;stroke:#00AEEF;stroke-width:0.5;opacity:1.0;" x1="1499.72" x2="1499.72" y1="1030.79" y2="1150.12"/>
 </g>
 <g id="Symbols">
  <g id="Black-L" transform="matrix(1 0 0 1 2861.4 1556)">
   <path d="M16.0645-82.7148L16.0645 12.2559C16.0645 27.1973 24.5117 35.6445 39.4043 35.6445L104.639 35.6445C119.482 35.6445 127.93 27.1973 127.93 12.2559L127.93-82.7148C127.93-97.6074 119.482-106.104 104.639-106.104L39.4043-106.104C24.5117-106.104 16.0645-97.6074 16.0645-82.7148ZM71.9238-50.5371C62.7441-50.5371 55.4688-57.8125 55.4688-67.041C55.4688-76.3184 62.7441-83.6426 71.9238-83.5938C81.2012-83.5449 88.4277-76.3184 88.5254-67.041C88.623-57.8125 81.2012-50.5371 71.9238-50.5371ZM72.0215-62.1094C74.7559-62.1094 76.9531-64.3555 76.9531-67.041C76.9531-69.8242 74.6582-72.0703 72.0215-72.0703C69.2871-72.0703 67.041-69.9219 67.041-67.041C67.041-64.3555 69.2871-62.1094 72.0215-62.1094ZM72.0215 13.2324C57.5195 13.2324 45.8008 1.5625 45.8008-12.9395C45.8008-27.6367 57.5195-39.2578 72.0215-39.1602C86.4746-39.1113 98.1934-27.6367 98.1934-12.9395C98.1934 1.5625 86.4746 13.2324 72.0215 13.2324ZM72.0215-4.98047C76.5137-4.98047 80.127-8.59375 80.127-12.9395C80.127-17.6758 76.5137-21.1426 72.0215-21.1426C67.4805-21.1426 63.916-17.6758 63.916-12.9395C63.916-8.59375 67.5293-4.98047 72.0215-4.98047Z"/>
  </g>
  <g id="Heavy-L" transform="matrix(1 0 0 1 2566.69 1556)">
   <path d="M16.0645-82.666L16.0645 12.207C16.0645 26.2695 23.877 34.1309 37.8906 34.1309L102.1 34.1309C116.113 34.1309 123.926 26.2695 123.926 12.207L123.926-82.666C123.926-96.7285 116.113-104.59 102.1-104.59L37.8906-104.59C23.877-104.59 16.0645-96.7285 16.0645-82.666ZM69.9707-51.123C61.0352-51.123 53.9551-58.2031 53.9551-67.1875C53.9551-76.123 61.0352-83.252 69.9707-83.2031C78.9062-83.1055 85.9375-76.123 86.0352-67.1875C86.1328-58.2031 78.9062-51.123 69.9707-51.123ZM69.9707-61.4746C73.1445-61.4746 75.6836-64.0625 75.6836-67.1875C75.6836-70.3613 73.0469-72.9004 69.9707-72.9004C66.8457-72.9004 64.3066-70.459 64.3066-67.1875C64.3066-64.0625 66.8457-61.4746 69.9707-61.4746ZM69.9707 12.8418C55.4688 12.8418 43.7012 1.12305 43.7012-13.4277C43.7012-28.125 55.4688-39.7949 69.9707-39.6973C84.5215-39.6484 96.2402-28.125 96.2402-13.4277C96.2402 1.12305 84.5215 12.8418 69.9707 12.8418ZM69.9707-4.54102C75-4.54102 78.9551-8.59375 78.9551-13.4277C78.9551-18.6035 75-22.4609 69.9707-22.4609C64.9902-22.4609 61.0352-18.6035 61.0352-13.4277C61.0352-8.59375 65.0391-4.54102 69.9707-4.54102Z"/>
  </g>
  <g id="Bold-L" transform="matrix(1 0 0 1 2272.23 1556)">
   <path d="M16.0645-82.6172L16.0645 12.1582C16.0645 25.2441 23.1445 32.4219 36.1816 32.4219L99.2676 32.4219C112.354 32.4219 119.434 25.2441 119.434 12.1582L119.434-82.6172C119.434-95.752 112.354-102.881 99.2676-102.881L36.1816-102.881C23.1445-102.881 16.0645-95.752 16.0645-82.6172ZM67.7246-51.8066C59.1309-51.8066 52.2461-58.6426 52.2461-67.2852C52.2461-75.9277 59.1309-82.8125 67.7246-82.7637C76.3184-82.666 83.1543-75.9277 83.252-67.2852C83.3496-58.6426 76.3184-51.8066 67.7246-51.8066ZM67.7246-60.791C71.3379-60.791 74.2676-63.7207 74.2676-67.2852C74.2676-70.9473 71.2891-73.8281 67.7246-73.8281C64.1113-73.8281 61.2305-71.0449 61.2305-67.2852C61.2305-63.7207 64.1113-60.791 67.7246-60.791ZM67.7246 12.3535C53.1738 12.3535 41.4062 0.634766 41.4062-13.9648C41.4062-28.7109 53.1738-40.3809 67.7246-40.2832C82.3242-40.2832 94.0918-28.7109 94.0918-13.9648C94.0918 0.634766 82.3242 12.3535 67.7246 12.3535ZM67.7246-4.10156C73.291-4.10156 77.6367-8.59375 77.6367-13.9648C77.6367-19.6777 73.291-23.9746 67.7246-23.9746C62.207-23.9746 57.8613-19.6777 57.8613-13.9648C57.8613-8.59375 62.3047-4.10156 67.7246-4.10156Z"/>
  </g>
  <g id="Semibold-L" transform="matrix(1 0 0 1 1977.08 1556)">
   <path d="M16.0645-82.5684L16.0645 12.1094C16.0645 24.5605 22.6562 31.2012 35.0098 31.2012L97.3633 31.2012C109.717 31.2012 116.309 24.5605 116.309 12.1094L116.309-82.5684C116.309-95.0684 109.766-101.709 97.3633-101.709L35.0098-101.709C22.6074-101.709 16.0645-95.0684 16.0645-82.5684ZM66.1621-52.2949C57.7637-52.2949 51.0742-58.9355 51.0742-67.3828C51.0742-75.8301 57.8125-82.5195 66.1621-82.4707C74.5605-82.373 81.25-75.7812 81.2988-67.3828C81.3965-58.9844 74.5605-52.2949 66.1621-52.2949ZM66.2109-60.3027C70.1172-60.3027 73.291-63.4766 73.291-67.3828C73.291-71.3379 70.0195-74.4629 66.2109-74.4629C62.2559-74.4629 59.082-71.4844 59.082-67.3828C59.082-63.4766 62.2559-60.3027 66.2109-60.3027ZM66.2109 12.0117C51.6113 12.0117 39.7949 0.341797 39.7949-14.3555C39.7949-29.1016 51.6113-40.8203 66.2109-40.7227C80.8105-40.6738 92.5781-29.1016 92.5781-14.3555C92.5781 0.341797 80.8105 12.0117 66.2109 12.0117ZM66.2109-3.80859C72.1191-3.80859 76.7578-8.54492 76.7578-14.3555C76.7578-20.4102 72.1191-25 66.2109-25C60.2539-25 55.6152-20.4102 55.6152-14.3555C55.6152-8.54492 60.4004-3.80859 66.2109-3.80859Z"/>
  </g>
  <g id="Medium-L" transform="matrix(1 0 0 1 1681.54 1556)">
   <path d="M16.0645-82.5684L16.0645 12.0605C16.0645 24.0234 22.2656 30.3223 34.1309 30.3223L95.8984 30.3223C107.764 30.3223 113.965 24.0234 113.965 12.0605L113.965-82.5684C113.965-94.5801 107.764-100.781 95.8984-100.781L34.1309-100.781C22.2168-100.781 16.0645-94.5801 16.0645-82.5684ZM64.9902-52.6367C56.7871-52.6367 50.1953-59.1797 50.1953-67.4805C50.1953-75.7324 56.7871-82.2754 64.9902-82.2266C73.2422-82.1289 79.7852-75.6836 79.834-67.4805C79.9316-59.1797 73.1934-52.6367 64.9902-52.6367ZM64.9902-59.9121C69.1895-59.9121 72.5098-63.3301 72.5098-67.4805C72.5098-71.6309 69.0918-74.9512 64.9902-74.9512C60.791-74.9512 57.4707-71.7773 57.4707-67.4805C57.4707-63.3301 60.8398-59.9121 64.9902-59.9121ZM64.9902 11.7676C50.3906 11.7676 38.5742 0.0976562 38.5742-14.5996C38.5742-29.3945 50.3906-41.1133 64.9902-41.0156C79.6387-41.0156 91.4062-29.3945 91.4062-14.5996C91.4062 0.0976562 79.6387 11.7676 64.9902 11.7676ZM64.9902-3.56445C71.2402-3.56445 76.0742-8.54492 76.0742-14.5996C76.0742-20.9473 71.2402-25.7812 64.9902-25.7812C58.7891-25.7812 53.9551-20.9473 53.9551-14.5996C53.9551-8.54492 58.9355-3.56445 64.9902-3.56445Z"/>
  </g>
  <g id="Regular-L" transform="matrix(1 0 0 1 1386.37 1556)">
   <path d="M16.0645-82.5684L16.0645 12.0117C16.0645 23.3398 21.7773 29.1504 33.0078 29.1504L93.9453 29.1504C105.176 29.1504 110.889 23.3398 110.889 12.0117L110.889-82.5684C110.889-93.8965 105.225-99.6582 93.9453-99.6582L33.0078-99.6582C21.7285-99.6582 16.0645-93.8965 16.0645-82.5684ZM63.4766-53.125C55.4688-53.125 49.0234-59.4727 49.0234-67.5293C49.0234-75.5859 55.4688-81.9824 63.4766-81.8848C71.4844-81.8359 77.8809-75.5371 77.9297-67.5293C78.0273-59.5215 71.4844-53.125 63.4766-53.125ZM63.4766-59.4727C67.9688-59.4727 71.582-63.0859 71.582-67.5293C71.582-72.0215 67.8711-75.5859 63.4766-75.5859C58.9355-75.5859 55.3711-72.168 55.3711-67.5293C55.3711-63.0859 58.9844-59.4727 63.4766-59.4727ZM63.4766 11.4746C48.8281 11.4746 37.0117-0.244141 37.0117-14.9902C37.0117-29.7852 48.8281-41.5527 63.4766-41.4551C78.125-41.4062 89.9414-29.7852 89.9414-14.9902C89.9414-0.244141 78.125 11.4746 63.4766 11.4746ZM63.4766-3.27148C70.0684-3.27148 75.1953-8.54492 75.1953-14.9902C75.1953-21.6797 70.0684-26.8066 63.4766-26.8066C56.8848-26.8066 51.7578-21.6797 51.7578-14.9902C51.7578-8.54492 57.0312-3.27148 63.4766-3.27148Z"/>
  </g>
  <g id="Light-L" transform="matrix(1 0 0 1 1090.88 1556)">
   <path d="M16.0645-82.4707L16.0645 12.0117C16.0645 22.5586 21.4844 28.0273 31.9336 28.0273L92.5781 28.0273C103.027 28.0273 108.447 22.5586 108.447 12.0117L108.447-82.4707C108.447-93.0664 103.076-98.5352 92.5781-98.5352L31.9336-98.5352C21.4355-98.5352 16.0645-93.0664 16.0645-82.4707ZM62.2559-53.5156C54.4434-53.5156 48.1934-59.7168 48.1934-67.5781C48.1934-75.3906 54.4922-81.5918 62.2559-81.4941C70.0684-81.4453 76.3184-75.3418 76.3184-67.5781C76.416-59.7656 70.0195-53.5156 62.2559-53.5156ZM62.2559-58.6914C67.1875-58.6914 71.1426-62.6953 71.1426-67.5781C71.1426-72.4121 67.0898-76.416 62.2559-76.416C57.2754-76.416 53.3691-72.6074 53.3691-67.5781C53.3691-62.6953 57.3242-58.6914 62.2559-58.6914ZM62.2559 11.1328C47.6562 11.1328 35.8887-0.585938 35.8887-15.2832C35.8887-29.9805 47.6562-41.6992 62.2559-41.6504C76.8555-41.6016 88.623-29.9805 88.623-15.2832C88.623-0.585938 76.8555 11.1328 62.2559 11.1328ZM62.2559-2.92969C69.1895-2.92969 74.6094-8.44727 74.6094-15.2832C74.6094-22.3145 69.1895-27.6855 62.2559-27.6855C55.3223-27.6855 49.9023-22.3145 49.9023-15.2832C49.9023-8.44727 55.5176-2.92969 62.2559-2.92969Z"/>
  </g>
  <g id="Thin-L" transform="matrix(1 0 0 1 795.778 1556)">
   <path d="M16.0645-82.4219L16.0645 11.9629C16.0645 21.4844 21.0938 26.5625 30.5664 26.5625L90.7227 26.5625C100.195 26.5625 105.225 21.4844 105.225 11.9629L105.225-82.4219C105.225-91.9922 100.293-97.0215 90.7227-97.0215L30.5664-97.0215C20.9961-97.0215 16.0645-91.9922 16.0645-82.4219ZM60.6445-54.1016C53.0762-54.1016 47.0703-60.0586 47.0703-67.5781C47.0703-75.0977 53.1738-81.1035 60.6445-81.0059C68.2129-80.9082 74.2188-75 74.2188-67.5781C74.2188-60.1074 68.1152-54.1016 60.6445-54.1016ZM60.6445-57.666C66.1133-57.666 70.5566-62.1094 70.5566-67.5781C70.5566-72.998 66.0645-77.4414 60.6445-77.4414C55.0781-77.4414 50.6836-73.1445 50.6836-67.5781C50.6836-62.1094 55.1758-57.666 60.6445-57.666ZM60.6445 10.6934C46.0938 10.6934 34.375-0.976562 34.375-15.625C34.375-30.2734 46.0938-41.9434 60.6445-41.8945C75.1953-41.8945 86.9141-30.2734 86.9141-15.625C86.9141-0.976562 75.1953 10.6934 60.6445 10.6934ZM60.6445-2.44141C68.0176-2.44141 73.8281-8.30078 73.8281-15.625C73.8281-23.1445 68.0176-28.8574 60.6445-28.8574C53.2715-28.8574 47.4609-23.1445 47.4609-15.625C47.4609-8.30078 53.418-2.44141 60.6445-2.44141Z"/>
  </g>
  <g id="Ultralight-L" transform="matrix(1 0 0 1 499.897 1556)">
   <path d="M16.0645-82.373L16.0645 11.9141C16.0645 20.8984 20.8496 25.8301 29.8828 25.8301L89.7461 25.8301C98.7793 25.8301 103.564 20.8984 103.564 11.9141L103.564-82.373C103.564-91.4551 98.8281-96.2402 89.7461-96.2402L29.8828-96.2402C20.8008-96.2402 16.0645-91.4551 16.0645-82.373ZM59.8145-54.3945C52.3926-54.3945 46.5332-60.2051 46.5332-67.627C46.5332-74.9023 52.4902-80.8105 59.8145-80.7617C67.2363-80.6641 73.1445-74.8535 73.0957-67.627C73.0957-60.3027 67.1387-54.3945 59.8145-54.3945ZM59.8145-57.1289C65.5762-57.1289 70.3125-61.8164 70.3125-67.627C70.3125-73.291 65.5273-77.9785 59.8145-77.9785C53.9551-77.9785 49.3652-73.4375 49.3652-67.627C49.3652-61.8164 54.0527-57.1289 59.8145-57.1289ZM59.8145 10.4492C45.2637 10.4492 33.6426-1.17188 33.6426-15.8203C33.6426-30.4199 45.2637-42.0898 59.8145-41.9922C74.3652-41.9922 85.9863-30.4199 85.9863-15.8203C85.9863-1.17188 74.3652 10.4492 59.8145 10.4492ZM59.8145-2.19727C67.3828-2.19727 73.4375-8.20312 73.4375-15.8203C73.4375-23.584 67.3828-29.4434 59.8145-29.4434C52.2461-29.4434 46.1914-23.584 46.1914-15.8203C46.1914-8.20312 52.3926-2.19727 59.8145-2.19727Z"/>
  </g>
  <g id="Black-M" transform="matrix(1 0 0 1 2875.54 1126)">
   <path d="M12.4512-72.0215L12.4512 1.66016C12.4512 13.916 19.7266 21.1914 32.0312 21.1914L83.7402 21.1914C95.9961 21.1914 103.271 13.916 103.271 1.66016L103.271-72.0215C103.271-84.3262 95.9961-91.6016 83.7402-91.6016L32.0312-91.6016C19.7266-91.6016 12.4512-84.3262 12.4512-72.0215ZM57.8125-46.4844C50.4395-46.4844 44.6289-52.2949 44.6289-59.7656C44.6289-67.1875 50.4395-73.0469 57.8125-73.0469C65.2344-72.998 71.0449-67.1875 71.0938-59.7656C71.1914-52.2949 65.2344-46.4844 57.8125-46.4844ZM57.8613-56.4941C59.668-56.4941 61.1328-57.959 61.1328-59.7656C61.1328-61.5723 59.5703-63.0859 57.8613-63.0859C56.1035-63.0859 54.5898-61.6699 54.5898-59.7656C54.5898-57.959 56.1035-56.4941 57.8613-56.4941ZM57.8613 2.73438C46.7285 2.73438 37.6953-6.29883 37.6953-17.4805C37.6953-28.8086 46.7285-37.6953 57.8613-37.6465C68.9941-37.6465 78.0273-28.8086 78.0273-17.4805C78.0273-6.29883 68.9941 2.73438 57.8613 2.73438ZM57.8613-12.1094C60.8887-12.1094 63.3301-14.5508 63.3301-17.4805C63.3301-20.6543 60.8887-22.998 57.8613-22.998C54.834-22.998 52.3926-20.6543 52.3926-17.4805C52.3926-14.5508 54.834-12.1094 57.8613-12.1094Z"/>
  </g>
  <g id="Heavy-M" transform="matrix(1 0 0 1 2580.71 1126)">
   <path d="M12.4512-72.0215L12.4512 1.61133C12.4512 13.1348 19.0918 19.8242 30.6152 19.8242L81.3477 19.8242C92.8711 19.8242 99.5117 13.1348 99.5117 1.61133L99.5117-72.0215C99.5117-83.5449 92.8711-90.2344 81.3477-90.2344L30.6152-90.2344C19.0918-90.2344 12.4512-83.5449 12.4512-72.0215ZM55.957-47.0703C48.8281-47.0703 43.1641-52.6855 43.1641-59.8633C43.1641-67.041 48.8281-72.7539 55.957-72.7051C63.1348-72.6562 68.75-67.041 68.7988-59.8633C68.8965-52.6855 63.1348-47.0703 55.957-47.0703ZM56.0059-56.0059C58.1055-56.0059 59.8633-57.7637 59.8633-59.8633C59.8633-62.0117 58.0566-63.7695 56.0059-63.7695C53.8574-63.7695 52.1484-62.1094 52.1484-59.8633C52.1484-57.7637 53.8574-56.0059 56.0059-56.0059ZM56.0059 2.34375C44.7754 2.34375 35.6934-6.68945 35.6934-17.9199C35.6934-29.2969 44.7754-38.2324 56.0059-38.1836C67.1875-38.1836 76.2695-29.2969 76.2695-17.9199C76.2695-6.68945 67.1875 2.34375 56.0059 2.34375ZM56.0059-11.7676C59.4238-11.7676 62.207-14.5996 62.207-17.9199C62.207-21.5332 59.4238-24.2188 56.0059-24.2188C52.5391-24.2188 49.7559-21.5332 49.7559-17.9199C49.7559-14.5996 52.5391-11.7676 56.0059-11.7676Z"/>
  </g>
  <g id="Bold-M" transform="matrix(1 0 0 1 2286.1 1126)">
   <path d="M12.4512-71.9727L12.4512 1.51367C12.4512 12.2559 18.4082 18.2617 29.1016 18.2617L78.6621 18.2617C89.3555 18.2617 95.3125 12.2559 95.3125 1.51367L95.3125-71.9727C95.3125-82.7148 89.3555-88.6719 78.6621-88.6719L29.1016-88.6719C18.3594-88.6719 12.4512-82.7148 12.4512-71.9727ZM53.8574-47.6562C46.9727-47.6562 41.5527-53.0762 41.5527-60.0098C41.5527-66.8945 47.0215-72.3633 53.8574-72.3633C60.7422-72.2656 66.1621-66.8945 66.2109-60.0098C66.3086-53.125 60.7422-47.6562 53.8574-47.6562ZM53.8574-55.4688C56.3965-55.4688 58.3984-57.5195 58.3984-60.0098C58.3984-62.5488 56.3477-64.5508 53.8574-64.5508C51.3672-64.5508 49.3652-62.6465 49.3652-60.0098C49.3652-57.5195 51.3672-55.4688 53.8574-55.4688ZM53.8574 1.95312C42.627 1.95312 33.4961-7.12891 33.4961-18.4082C33.4961-29.834 42.627-38.8672 53.8574-38.7695C65.1367-38.7695 74.2676-29.834 74.2676-18.4082C74.2676-7.12891 65.1367 1.95312 53.8574 1.95312ZM53.8574-11.377C57.8613-11.377 60.9863-14.5996 60.9863-18.4082C60.9863-22.5098 57.8613-25.5859 53.8574-25.5859C49.9023-25.5859 46.7773-22.5098 46.7773-18.4082C46.7773-14.5996 49.9512-11.377 53.8574-11.377Z"/>
  </g>
  <g id="Semibold-M" transform="matrix(1 0 0 1 1990.85 1126)">
   <path d="M12.4512-71.9727L12.4512 1.51367C12.4512 11.6699 17.8711 17.1875 28.0273 17.1875L76.8555 17.1875C86.9629 17.1875 92.3828 11.6699 92.3828 1.51367L92.3828-71.9727C92.3828-82.1777 86.9629-87.6465 76.8555-87.6465L28.0273-87.6465C17.8711-87.6465 12.4512-82.1777 12.4512-71.9727ZM52.3926-48.0957C45.752-48.0957 40.4297-53.3691 40.4297-60.1074C40.4297-66.7969 45.752-72.1191 52.3926-72.0703C59.082-72.0215 64.4043-66.7969 64.4531-60.1074C64.502-53.3691 59.082-48.0957 52.3926-48.0957ZM52.4414-55.0781C55.2246-55.0781 57.4219-57.373 57.4219-60.1074C57.4219-62.8906 55.127-65.1367 52.4414-65.1367C49.6582-65.1367 47.4121-62.9883 47.4121-60.1074C47.4121-57.373 49.6582-55.0781 52.4414-55.0781ZM52.4414 1.66016C41.1133 1.66016 31.9824-7.42188 31.9824-18.75C31.9824-30.2246 41.1133-39.2578 52.4414-39.209C63.7207-39.1602 72.8516-30.2246 72.8516-18.75C72.8516-7.42188 63.7207 1.66016 52.4414 1.66016ZM52.4414-11.1328C56.7383-11.1328 60.1074-14.5996 60.1074-18.75C60.1074-23.1934 56.7383-26.5137 52.4414-26.5137C48.0957-26.5137 44.7266-23.1934 44.7266-18.75C44.7266-14.5996 48.1934-11.1328 52.4414-11.1328Z"/>
  </g>
  <g id="Medium-M" transform="matrix(1 0 0 1 1695.24 1126)">
   <path d="M12.4512-71.9238L12.4512 1.46484C12.4512 11.2305 17.5293 16.3574 27.1973 16.3574L75.4395 16.3574C85.1074 16.3574 90.1855 11.2305 90.1855 1.46484L90.1855-71.9238C90.1855-81.7383 85.1562-86.8164 75.4395-86.8164L27.1973-86.8164C17.5293-86.8164 12.4512-81.7383 12.4512-71.9238ZM51.3184-48.4375C44.7754-48.4375 39.5508-53.6133 39.5508-60.1562C39.5508-66.748 44.8242-71.9238 51.3184-71.875C57.8613-71.8262 63.0371-66.6992 63.0859-60.1562C63.1836-53.6133 57.8125-48.4375 51.3184-48.4375ZM51.3184-54.834C54.2969-54.834 56.6895-57.2266 56.6895-60.1562C56.6895-63.1348 54.248-65.5273 51.3184-65.5273C48.3398-65.5273 45.9473-63.2812 45.9473-60.1562C45.9473-57.2266 48.3398-54.834 51.3184-54.834ZM51.3184 1.41602C39.9902 1.41602 30.8105-7.66602 30.8105-19.043C30.8105-30.5176 39.9902-39.5996 51.3184-39.5508C62.6465-39.502 71.8262-30.5176 71.8262-19.043C71.8262-7.66602 62.6465 1.41602 51.3184 1.41602ZM51.3184-10.9375C55.9082-10.9375 59.4238-14.5996 59.4238-19.043C59.4238-23.7305 55.9082-27.2461 51.3184-27.2461C46.7285-27.2461 43.2129-23.7305 43.2129-19.043C43.2129-14.5996 46.875-10.9375 51.3184-10.9375Z"/>
  </g>
  <g id="Regular-M" transform="matrix(1 0 0 1 1399.97 1126)">
   <path d="M12.4512-71.9238L12.4512 1.41602C12.4512 10.6445 17.041 15.2832 26.1719 15.2832L73.6328 15.2832C82.7637 15.2832 87.3047 10.6445 87.3047 1.41602L87.3047-71.9238C87.3047-81.1523 82.7637-85.791 73.6328-85.791L26.1719-85.791C17.041-85.791 12.4512-81.1523 12.4512-71.9238ZM49.9023-48.8281C43.5547-48.8281 38.4766-53.9062 38.4766-60.2539C38.4766-66.6504 43.5547-71.6797 49.9023-71.6309C56.2012-71.582 61.2793-66.6016 61.3281-60.2539C61.4258-53.9062 56.2012-48.8281 49.9023-48.8281ZM49.9023-54.4434C53.125-54.4434 55.7129-57.0801 55.7129-60.2539C55.7129-63.4766 53.0762-66.0645 49.9023-66.0645C46.6309-66.0645 44.0918-63.623 44.0918-60.2539C44.0918-57.0801 46.6309-54.4434 49.9023-54.4434ZM49.9023 1.12305C38.5254 1.12305 29.3457-7.95898 29.3457-19.3848C29.3457-30.8594 38.5254-39.9902 49.9023-39.9414C61.2793-39.8926 70.459-30.8594 70.459-19.3848C70.459-7.95898 61.2793 1.12305 49.9023 1.12305ZM49.9023-10.6934C54.7852-10.6934 58.5938-14.5996 58.5938-19.3848C58.5938-24.3652 54.7852-28.1738 49.9023-28.1738C44.9707-28.1738 41.2109-24.3652 41.2109-19.3848C41.2109-14.5996 45.1172-10.6934 49.9023-10.6934Z"/>
  </g>
  <g id="Light-M" transform="matrix(1 0 0 1 1104.33 1126)">
   <path d="M12.4512-71.875L12.4512 1.36719C12.4512 9.91211 16.748 14.3066 25.2441 14.3066L72.3633 14.3066C80.8105 14.3066 85.1562 9.91211 85.1562 1.36719L85.1562-71.875C85.1562-80.4199 80.8594-84.7656 72.3633-84.7656L25.2441-84.7656C16.748-84.7656 12.4512-80.4199 12.4512-71.875ZM48.7793-49.2188C42.627-49.2188 37.6953-54.1016 37.6953-60.3027C37.6953-66.4551 42.6758-71.3379 48.7793-71.2891C54.9316-71.1914 59.8633-66.4062 59.8633-60.3027C59.9609-54.1504 54.9316-49.2188 48.7793-49.2188ZM48.7793-53.7598C52.3926-53.7598 55.3223-56.6895 55.3223-60.3027C55.3223-63.8672 52.3438-66.7969 48.7793-66.7969C45.166-66.7969 42.2852-64.0137 42.2852-60.3027C42.2852-56.6895 45.166-53.7598 48.7793-53.7598ZM48.7793 0.830078C37.4512 0.830078 28.3203-8.20312 28.3203-19.6289C28.3203-31.0547 37.4512-40.1855 48.7793-40.0879C60.1562-40.0879 69.2871-31.0547 69.2871-19.6289C69.2871-8.20312 60.1562 0.830078 48.7793 0.830078ZM48.7793-10.3516C54.0039-10.3516 58.0566-14.502 58.0566-19.6289C58.0566-24.9512 54.0039-28.9551 48.7793-28.9551C43.5547-28.9551 39.502-24.9512 39.502-19.6289C39.502-14.502 43.7012-10.3516 48.7793-10.3516Z"/>
  </g>
  <g id="Thin-M" transform="matrix(1 0 0 1 809.083 1126)">
   <path d="M12.4512-71.8262L12.4512 1.36719C12.4512 8.93555 16.4062 12.9883 23.9746 12.9883L70.7031 12.9883C78.2715 12.9883 82.2266 8.93555 82.2266 1.36719L82.2266-71.8262C82.2266-79.4434 78.3203-83.4473 70.7031-83.4473L23.9746-83.4473C16.3574-83.4473 12.4512-79.4434 12.4512-71.8262ZM47.3633-49.7559C41.4551-49.7559 36.7188-54.3945 36.7188-60.3027C36.7188-66.1621 41.5039-70.8984 47.3633-70.8008C53.2715-70.752 57.959-66.1133 57.959-60.3027C58.0078-54.4434 53.2227-49.7559 47.3633-49.7559ZM47.3633-52.832C51.4648-52.832 54.834-56.2012 54.834-60.3027C54.834-64.3555 51.416-67.7246 47.3633-67.7246C43.1641-67.7246 39.8926-64.502 39.8926-60.3027C39.8926-56.2012 43.2129-52.832 47.3633-52.832ZM47.3633 0.439453C36.0352 0.439453 27.002-8.59375 27.002-19.9707C27.002-31.3477 36.0352-40.3809 47.3633-40.332C58.6426-40.332 67.7246-31.3477 67.7246-19.9707C67.7246-8.59375 58.6426 0.439453 47.3633 0.439453ZM47.3633-9.91211C52.9785-9.91211 57.373-14.4043 57.373-19.9707C57.373-25.6836 52.9785-30.0293 47.3633-30.0293C41.748-30.0293 37.3047-25.6836 37.3047-19.9707C37.3047-14.4043 41.8457-9.91211 47.3633-9.91211Z"/>
  </g>
  <g id="Ultralight-M" transform="matrix(1 0 0 1 513.105 1126)">
   <path d="M12.4512-71.7773L12.4512 1.31836C12.4512 8.44727 16.2598 12.3047 23.3887 12.3047L69.8242 12.3047C76.9531 12.3047 80.7617 8.44727 80.7617 1.31836L80.7617-71.7773C80.7617-78.9551 77.0508-82.7637 69.8242-82.7637L23.3887-82.7637C16.1621-82.7637 12.4512-78.9551 12.4512-71.7773ZM46.6309-50C40.8203-50 36.2305-54.541 36.2305-60.3027C36.2305-66.0156 40.8691-70.6543 46.6309-70.5566C52.3926-70.5078 56.9824-65.9668 56.9824-60.3027C56.9824-54.5898 52.3438-50 46.6309-50ZM46.6309-52.3438C50.9766-52.3438 54.541-55.9082 54.541-60.3027C54.541-64.6484 50.9277-68.2129 46.6309-68.2129C42.1387-68.2129 38.6719-64.7461 38.6719-60.3027C38.6719-55.9082 42.2363-52.3438 46.6309-52.3438ZM46.6309 0.244141C35.3516 0.244141 26.2695-8.78906 26.2695-20.1172C26.2695-31.4941 35.3516-40.5273 46.6309-40.4297C57.9102-40.4297 66.9434-31.4941 66.9434-20.1172C66.9434-8.78906 57.9102 0.244141 46.6309 0.244141ZM46.6309-9.66797C52.4414-9.66797 57.0312-14.3066 57.0312-20.1172C57.0312-26.0742 52.4414-30.5664 46.6309-30.5664C40.7715-30.5664 36.1816-26.0742 36.1816-20.1172C36.1816-14.3066 40.918-9.66797 46.6309-9.66797Z"/>
  </g>
  <g id="Black-S" transform="matrix(1 0 0 1 2888.19 696)">
   <path d="M9.76562-64.0625L9.76562-6.34766C9.76562 3.22266 15.4297 8.88672 25 8.88672L65.4297 8.88672C75 8.88672 80.6641 3.22266 80.6641-6.34766L80.6641-64.0625C80.6641-73.6328 75-79.2969 65.4297-79.2969L25-79.2969C15.4297-79.2969 9.76562-73.6328 9.76562-64.0625ZM45.166-44.0918C39.4043-44.0918 34.8633-48.6328 34.8633-54.4434C34.8633-60.2539 39.4043-64.8438 45.166-64.8438C50.9766-64.7949 55.5176-60.2539 55.5664-54.4434C55.6152-48.6328 50.9766-44.0918 45.166-44.0918ZM45.2148-51.8555C46.6309-51.8555 47.8027-53.0273 47.8027-54.4434C47.8027-55.9082 46.582-57.0801 45.2148-57.0801C43.7988-57.0801 42.627-55.957 42.627-54.4434C42.627-53.0273 43.7988-51.8555 45.2148-51.8555ZM45.2148-5.51758C36.4746-5.51758 29.3945-12.5977 29.3945-21.3379C29.3945-30.2246 36.4746-37.207 45.2148-37.1582C53.9551-37.1582 61.0352-30.2246 61.0352-21.3379C61.0352-12.5977 53.9551-5.51758 45.2148-5.51758ZM45.2148-17.0898C47.6074-17.0898 49.5605-19.043 49.5605-21.3379C49.5605-23.877 47.6074-25.7324 45.2148-25.7324C42.8223-25.7324 40.8691-23.877 40.8691-21.3379C40.8691-19.043 42.8223-17.0898 45.2148-17.0898Z"/>
  </g>
  <g id="Heavy-S" transform="matrix(1 0 0 1 2592.79 696)">
   <path d="M9.76562-64.0625L9.76562-6.39648C9.76562 2.73438 14.9902 7.91016 24.0234 7.91016L63.7695 7.91016C72.8027 7.91016 78.0273 2.73438 78.0273-6.39648L78.0273-64.0625C78.0273-73.1445 72.8027-78.3691 63.7695-78.3691L24.0234-78.3691C14.9902-78.3691 9.76562-73.1445 9.76562-64.0625ZM43.8477-44.4824C38.2812-44.4824 33.8379-48.877 33.8379-54.541C33.8379-60.1562 38.2812-64.6484 43.8477-64.5996C49.5117-64.5508 53.9062-60.1562 53.9551-54.541C54.0039-48.877 49.5117-44.4824 43.8477-44.4824ZM43.8965-51.5625C45.5566-51.5625 46.875-52.9297 46.875-54.541C46.875-56.2012 45.5078-57.5684 43.8965-57.5684C42.2363-57.5684 40.918-56.25 40.918-54.541C40.918-52.9297 42.2363-51.5625 43.8965-51.5625ZM43.8965-5.76172C35.1074-5.76172 27.9785-12.8418 27.9785-21.6797C27.9785-30.5664 35.1074-37.5977 43.8965-37.5488C52.6855-37.5488 59.8145-30.5664 59.8145-21.6797C59.8145-12.8418 52.6855-5.76172 43.8965-5.76172ZM43.8965-16.8945C46.582-16.8945 48.7793-19.043 48.7793-21.6797C48.7793-24.4629 46.582-26.5625 43.8965-26.5625C41.2109-26.5625 39.0137-24.4629 39.0137-21.6797C39.0137-19.043 41.2109-16.8945 43.8965-16.8945Z"/>
  </g>
  <g id="Bold-S" transform="matrix(1 0 0 1 2297.55 696)">
   <path d="M9.76562-64.0137L9.76562-6.44531C9.76562 2.14844 14.4531 6.83594 22.998 6.83594L61.8652 6.83594C70.3613 6.83594 75.0977 2.14844 75.0977-6.44531L75.0977-64.0137C75.0977-72.6074 70.3613-77.2949 61.8652-77.2949L22.998-77.2949C14.4531-77.2949 9.76562-72.6074 9.76562-64.0137ZM42.3828-44.9219C37.0117-44.9219 32.666-49.1699 32.666-54.6387C32.666-60.1074 37.0117-64.4043 42.3828-64.3555C47.8027-64.3066 52.0996-60.1074 52.1484-54.6387C52.2461-49.1699 47.8027-44.9219 42.3828-44.9219ZM42.4316-51.2207C44.2871-51.2207 45.8008-52.7832 45.8008-54.6387C45.8008-56.543 44.2383-58.0566 42.4316-58.0566C40.5273-58.0566 39.0137-56.6406 39.0137-54.6387C39.0137-52.7832 40.5273-51.2207 42.4316-51.2207ZM42.4316-6.05469C33.5938-6.05469 26.416-13.1348 26.416-22.0215C26.416-30.957 33.5938-38.0371 42.4316-37.9883C51.2695-37.9883 58.3984-30.957 58.3984-22.0215C58.3984-13.1348 51.2695-6.05469 42.4316-6.05469ZM42.4316-16.6016C45.459-16.6016 47.8516-19.0918 47.8516-22.0215C47.8516-25.1465 45.459-27.5391 42.4316-27.5391C39.3555-27.5391 36.9629-25.1465 36.9629-22.0215C36.9629-19.0918 39.4043-16.6016 42.4316-16.6016Z"/>
  </g>
  <g id="Semibold-S" transform="matrix(1 0 0 1 2001.86 696)">
   <path d="M9.76562-64.0137L9.76562-6.44531C9.76562 1.75781 14.1113 6.10352 22.2168 6.10352L60.5469 6.10352C68.7012 6.10352 73.0469 1.75781 73.0469-6.44531L73.0469-64.0137C73.0469-72.2168 68.7012-76.6113 60.5469-76.6113L22.2168-76.6113C14.1113-76.6113 9.76562-72.2168 9.76562-64.0137ZM41.4062-45.2148C36.1328-45.2148 31.8848-49.3652 31.8848-54.6875C31.8848-60.0098 36.1328-64.2578 41.4062-64.209C46.6797-64.1602 50.8789-60.0098 50.9277-54.6875C50.9766-49.4141 46.6797-45.2148 41.4062-45.2148ZM41.4062-51.0254C43.457-51.0254 45.1172-52.6855 45.1172-54.6875C45.1172-56.7871 43.4082-58.3984 41.4062-58.3984C39.3555-58.3984 37.6953-56.8848 37.6953-54.6875C37.6953-52.6855 39.3555-51.0254 41.4062-51.0254ZM41.4062-6.25C32.5195-6.25 25.3418-13.3789 25.3418-22.2656C25.3418-31.25 32.5195-38.3789 41.4062-38.3301C50.293-38.2812 57.4707-31.25 57.4707-22.2656C57.4707-13.3789 50.293-6.25 41.4062-6.25ZM41.4062-16.4551C44.6777-16.4551 47.2656-19.0918 47.2656-22.2656C47.2656-25.6348 44.6777-28.1738 41.4062-28.1738C38.1348-28.1738 35.5469-25.6348 35.5469-22.2656C35.5469-19.0918 38.1836-16.4551 41.4062-16.4551Z"/>
  </g>
  <g id="Medium-S" transform="matrix(1 0 0 1 1705.93 696)">
   <path d="M9.76562-64.0137L9.76562-6.49414C9.76562 1.46484 13.8184 5.56641 21.6797 5.56641L59.5703 5.56641C67.4316 5.56641 71.4844 1.46484 71.4844-6.49414L71.4844-64.0137C71.4844-71.9238 67.4316-76.0254 59.5703-76.0254L21.6797-76.0254C13.8184-76.0254 9.76562-71.9238 9.76562-64.0137ZM40.625-45.4102C35.4492-45.4102 31.2988-49.5605 31.2988-54.7852C31.2988-60.0098 35.4492-64.1113 40.625-64.0625C45.8008-64.0137 49.9512-60.0098 50-54.7852C50.0488-49.5605 45.8008-45.4102 40.625-45.4102ZM40.625-50.8301C42.8223-50.8301 44.5312-52.6367 44.5312-54.7852C44.5312-56.9336 42.7734-58.6914 40.625-58.6914C38.4277-58.6914 36.7188-57.0312 36.7188-54.7852C36.7188-52.6367 38.4277-50.8301 40.625-50.8301ZM40.625-6.39648C31.7383-6.39648 24.5605-13.5254 24.5605-22.4609C24.5605-31.4453 31.7383-38.5742 40.625-38.5254C49.5117-38.5254 56.7383-31.4453 56.7383-22.4609C56.7383-13.5254 49.5117-6.39648 40.625-6.39648ZM40.625-16.3086C44.0918-16.3086 46.7773-19.0918 46.7773-22.4609C46.7773-25.9766 44.0918-28.6621 40.625-28.6621C37.1582-28.6621 34.4727-25.9766 34.4727-22.4609C34.4727-19.0918 37.2559-16.3086 40.625-16.3086Z"/>
  </g>
  <g id="Regular-S" transform="matrix(1 0 0 1 1410.22 696)">
   <path d="M9.76562-64.0137L9.76562-6.49414C9.76562 1.07422 13.4766 4.83398 20.9473 4.83398L58.3008 4.83398C65.7715 4.83398 69.4824 1.07422 69.4824-6.49414L69.4824-64.0137C69.4824-71.582 65.7715-75.3418 58.3008-75.3418L20.9473-75.3418C13.4766-75.3418 9.76562-71.582 9.76562-64.0137ZM39.6484-45.7031C34.5703-45.7031 30.5176-49.7559 30.5176-54.834C30.5176-59.9121 34.5703-63.9648 39.6484-63.916C44.6777-63.8672 48.6816-59.9121 48.7305-54.834C48.8281-49.7559 44.6777-45.7031 39.6484-45.7031ZM39.6484-50.6348C41.9922-50.6348 43.8477-52.5391 43.8477-54.834C43.8477-57.1777 41.9434-59.0332 39.6484-59.0332C37.2559-59.0332 35.4004-57.2754 35.4004-54.834C35.4004-52.5391 37.2559-50.6348 39.6484-50.6348ZM39.6484-6.5918C30.7129-6.5918 23.4863-13.7207 23.4863-22.7051C23.4863-31.7383 30.7129-38.916 39.6484-38.8672C48.5352-38.8184 55.7617-31.7383 55.7617-22.7051C55.7617-13.7207 48.5352-6.5918 39.6484-6.5918ZM39.6484-16.1621C43.3105-16.1621 46.1426-19.1406 46.1426-22.7051C46.1426-26.4648 43.3105-29.3457 39.6484-29.3457C35.9375-29.3457 33.1055-26.4648 33.1055-22.7051C33.1055-19.1406 36.0352-16.1621 39.6484-16.1621Z"/>
  </g>
  <g id="Light-S" transform="matrix(1 0 0 1 1114.49 696)">
   <path d="M9.76562-63.9648L9.76562-6.54297C9.76562 0.390625 13.2324 3.95508 20.1172 3.95508L57.1777 3.95508C64.0625 3.95508 67.5293 0.390625 67.5293-6.54297L67.5293-63.9648C67.5293-70.8984 64.0625-74.4141 57.1777-74.4141L20.1172-74.4141C13.2324-74.4141 9.76562-70.8984 9.76562-63.9648ZM38.6719-46.0449C33.7891-46.0449 29.834-49.9512 29.834-54.834C29.834-59.7656 33.7891-63.6719 38.6719-63.623C43.5547-63.5742 47.4609-59.7168 47.4609-54.834C47.5586-49.9512 43.5059-46.0449 38.6719-46.0449ZM38.6719-50C41.3574-50 43.5059-52.1973 43.5059-54.834C43.5059-57.5195 41.3086-59.668 38.6719-59.668C35.9375-59.668 33.8379-57.6172 33.8379-54.834C33.8379-52.1973 35.9863-50 38.6719-50ZM38.6719-6.83594C29.7363-6.83594 22.5586-13.9648 22.5586-22.9004C22.5586-31.8848 29.7363-39.0625 38.6719-39.0137C47.5586-38.9648 54.7363-31.8848 54.7363-22.9004C54.7363-13.9648 47.5586-6.83594 38.6719-6.83594ZM38.6719-15.8691C42.627-15.8691 45.7031-19.043 45.7031-22.9004C45.7031-26.9531 42.627-30.0293 38.6719-30.0293C34.668-30.0293 31.5918-26.9531 31.5918-22.9004C31.5918-19.043 34.7656-15.8691 38.6719-15.8691Z"/>
  </g>
  <g id="Thin-S" transform="matrix(1 0 0 1 819.044 696)">
   <path d="M9.76562-63.916L9.76562-6.54297C9.76562-0.439453 12.9395 2.7832 19.043 2.7832L55.7129 2.7832C61.8164 2.7832 64.9902-0.439453 64.9902-6.54297L64.9902-63.916C64.9902-70.0684 61.8652-73.2422 55.7129-73.2422L19.043-73.2422C12.8906-73.2422 9.76562-70.0684 9.76562-63.916ZM37.4023-46.4844C32.7148-46.4844 28.9551-50.1953 28.9551-54.8828C28.9551-59.5215 32.7637-63.2324 37.4023-63.1836C42.041-63.1348 45.8008-59.4727 45.8008-54.8828C45.8008-50.1953 42.041-46.4844 37.4023-46.4844ZM37.4023-49.2188C40.5273-49.2188 43.0664-51.7578 43.0664-54.8828C43.0664-57.959 40.4785-60.498 37.4023-60.498C34.2285-60.498 31.6895-58.0566 31.6895-54.8828C31.6895-51.7578 34.2285-49.2188 37.4023-49.2188ZM37.4023-7.17773C28.5156-7.17773 21.3867-14.3066 21.3867-23.1934C21.3867-32.1289 28.5156-39.209 37.4023-39.1602C46.2402-39.1602 53.3691-32.1289 53.3691-23.1934C53.3691-14.3066 46.2402-7.17773 37.4023-7.17773ZM37.4023-15.4785C41.6992-15.4785 45.1172-18.9453 45.1172-23.1934C45.1172-27.5879 41.6992-30.957 37.4023-30.957C33.0566-30.957 29.6387-27.5879 29.6387-23.1934C29.6387-18.9453 33.1543-15.4785 37.4023-15.4785Z"/>
  </g>
  <g id="Ultralight-S" transform="matrix(1 0 0 1 522.992 696)">
   <path d="M9.76562-63.8672L9.76562-6.5918C9.76562-0.878906 12.793 2.19727 18.5059 2.19727L54.9805 2.19727C60.6445 2.19727 63.6719-0.878906 63.6719-6.5918L63.6719-63.8672C63.6719-69.6289 60.6934-72.6562 54.9805-72.6562L18.5059-72.6562C12.7441-72.6562 9.76562-69.6289 9.76562-63.8672ZM36.7188-46.7285C32.1777-46.7285 28.5156-50.293 28.5156-54.8828C28.5156-59.4238 32.2266-63.0371 36.7188-62.9883C41.3086-62.9395 44.9219-59.375 44.9219-54.8828C44.9219-50.3418 41.2598-46.7285 36.7188-46.7285ZM36.7188-48.7793C40.0879-48.7793 42.8223-51.5137 42.8223-54.8828C42.8223-58.2031 40.0391-60.9375 36.7188-60.9375C33.3008-60.9375 30.6152-58.3008 30.6152-54.8828C30.6152-51.5137 33.3496-48.7793 36.7188-48.7793ZM36.7188-7.37305C27.8809-7.37305 20.8008-14.4531 20.8008-23.3398C20.8008-32.2266 27.8809-39.3555 36.7188-39.3066C45.5566-39.2578 52.6367-32.2266 52.6367-23.3398C52.6367-14.4531 45.5566-7.37305 36.7188-7.37305ZM36.7188-15.2832C41.2109-15.2832 44.7754-18.8477 44.7754-23.3398C44.7754-27.9297 41.2109-31.4453 36.7188-31.4453C32.2266-31.4453 28.6621-27.9297 28.6621-23.3398C28.6621-18.8477 32.3242-15.2832 36.7188-15.2832Z"/>
  </g>
 </g>
</svg>
